G04 #@! TF.GenerationSoftware,KiCad,Pcbnew,(5.0.1)-3*
G04 #@! TF.CreationDate,2019-07-27T12:32:00+01:00*
G04 #@! TF.ProjectId,UsbToSerial,557362546F53657269616C2E6B696361,rev?*
G04 #@! TF.SameCoordinates,Original*
G04 #@! TF.FileFunction,Legend,Bot*
G04 #@! TF.FilePolarity,Positive*
%FSLAX46Y46*%
G04 Gerber Fmt 4.6, Leading zero omitted, Abs format (unit mm)*
G04 Created by KiCad (PCBNEW (5.0.1)-3) date 27/07/2019 12:32:00*
%MOMM*%
%LPD*%
G01*
G04 APERTURE LIST*
%ADD10C,0.150000*%
G04 APERTURE END LIST*
D10*
X110117000Y-74588762D02*
X110069380Y-74493524D01*
X110069380Y-74350667D01*
X110117000Y-74207809D01*
X110212238Y-74112571D01*
X110307476Y-74064952D01*
X110497952Y-74017333D01*
X110640809Y-74017333D01*
X110831285Y-74064952D01*
X110926523Y-74112571D01*
X111021761Y-74207809D01*
X111069380Y-74350667D01*
X111069380Y-74445905D01*
X111021761Y-74588762D01*
X110974142Y-74636381D01*
X110640809Y-74636381D01*
X110640809Y-74445905D01*
X111069380Y-75064952D02*
X110069380Y-75064952D01*
X111069380Y-75636381D01*
X110069380Y-75636381D01*
X111069380Y-76112571D02*
X110069380Y-76112571D01*
X110069380Y-76350667D01*
X110117000Y-76493524D01*
X110212238Y-76588762D01*
X110307476Y-76636381D01*
X110497952Y-76684000D01*
X110640809Y-76684000D01*
X110831285Y-76636381D01*
X110926523Y-76588762D01*
X111021761Y-76493524D01*
X111069380Y-76350667D01*
X111069380Y-76112571D01*
X105989380Y-74064952D02*
X104989380Y-74064952D01*
X104989380Y-74445905D01*
X105037000Y-74541143D01*
X105084619Y-74588762D01*
X105179857Y-74636381D01*
X105322714Y-74636381D01*
X105417952Y-74588762D01*
X105465571Y-74541143D01*
X105513190Y-74445905D01*
X105513190Y-74064952D01*
X104989380Y-74969714D02*
X105989380Y-75207809D01*
X105275095Y-75398286D01*
X105989380Y-75588762D01*
X104989380Y-75826857D01*
X105989380Y-76779238D02*
X105513190Y-76445905D01*
X105989380Y-76207809D02*
X104989380Y-76207809D01*
X104989380Y-76588762D01*
X105037000Y-76684000D01*
X105084619Y-76731619D01*
X105179857Y-76779238D01*
X105322714Y-76779238D01*
X105417952Y-76731619D01*
X105465571Y-76684000D01*
X105513190Y-76588762D01*
X105513190Y-76207809D01*
X107529380Y-73922095D02*
X107529380Y-74493524D01*
X108529380Y-74207810D02*
X107529380Y-74207810D01*
X107529380Y-74731619D02*
X108529380Y-75398286D01*
X107529380Y-75398286D02*
X108529380Y-74731619D01*
X107529380Y-75969714D02*
X107529380Y-76064952D01*
X107577000Y-76160191D01*
X107624619Y-76207810D01*
X107719857Y-76255429D01*
X107910333Y-76303048D01*
X108148428Y-76303048D01*
X108338904Y-76255429D01*
X108434142Y-76207810D01*
X108481761Y-76160191D01*
X108529380Y-76064952D01*
X108529380Y-75969714D01*
X108481761Y-75874476D01*
X108434142Y-75826857D01*
X108338904Y-75779238D01*
X108148428Y-75731619D01*
X107910333Y-75731619D01*
X107719857Y-75779238D01*
X107624619Y-75826857D01*
X107577000Y-75874476D01*
X107529380Y-75969714D01*
X110942380Y-84677286D02*
X110466190Y-84343952D01*
X110942380Y-84105857D02*
X109942380Y-84105857D01*
X109942380Y-84486809D01*
X109990000Y-84582048D01*
X110037619Y-84629667D01*
X110132857Y-84677286D01*
X110275714Y-84677286D01*
X110370952Y-84629667D01*
X110418571Y-84582048D01*
X110466190Y-84486809D01*
X110466190Y-84105857D01*
X109942380Y-85010619D02*
X110942380Y-85677286D01*
X109942380Y-85677286D02*
X110942380Y-85010619D01*
X110942380Y-86058238D02*
X109942380Y-86058238D01*
X103449380Y-74636381D02*
X102973190Y-74303047D01*
X103449380Y-74064952D02*
X102449380Y-74064952D01*
X102449380Y-74445904D01*
X102497000Y-74541143D01*
X102544619Y-74588762D01*
X102639857Y-74636381D01*
X102782714Y-74636381D01*
X102877952Y-74588762D01*
X102925571Y-74541143D01*
X102973190Y-74445904D01*
X102973190Y-74064952D01*
X102449380Y-74969714D02*
X103449380Y-75636381D01*
X102449380Y-75636381D02*
X103449380Y-74969714D01*
X103449380Y-76017333D02*
X102449380Y-76017333D01*
X100909380Y-74636380D02*
X100433190Y-74303047D01*
X100909380Y-74064952D02*
X99909380Y-74064952D01*
X99909380Y-74445904D01*
X99957000Y-74541142D01*
X100004619Y-74588761D01*
X100099857Y-74636380D01*
X100242714Y-74636380D01*
X100337952Y-74588761D01*
X100385571Y-74541142D01*
X100433190Y-74445904D01*
X100433190Y-74064952D01*
X100909380Y-75064952D02*
X99909380Y-75064952D01*
X98369380Y-74064952D02*
X97369380Y-74064952D01*
X97369380Y-74303047D01*
X97417000Y-74445904D01*
X97512238Y-74541142D01*
X97607476Y-74588761D01*
X97797952Y-74636380D01*
X97940809Y-74636380D01*
X98131285Y-74588761D01*
X98226523Y-74541142D01*
X98321761Y-74445904D01*
X98369380Y-74303047D01*
X98369380Y-74064952D01*
X98274142Y-75636380D02*
X98321761Y-75588761D01*
X98369380Y-75445904D01*
X98369380Y-75350666D01*
X98321761Y-75207809D01*
X98226523Y-75112571D01*
X98131285Y-75064952D01*
X97940809Y-75017333D01*
X97797952Y-75017333D01*
X97607476Y-75064952D01*
X97512238Y-75112571D01*
X97417000Y-75207809D01*
X97369380Y-75350666D01*
X97369380Y-75445904D01*
X97417000Y-75588761D01*
X97464619Y-75636380D01*
X98369380Y-76636380D02*
X97893190Y-76303047D01*
X98369380Y-76064952D02*
X97369380Y-76064952D01*
X97369380Y-76445904D01*
X97417000Y-76541142D01*
X97464619Y-76588761D01*
X97559857Y-76636380D01*
X97702714Y-76636380D01*
X97797952Y-76588761D01*
X97845571Y-76541142D01*
X97893190Y-76445904D01*
X97893190Y-76064952D01*
X95829380Y-74064952D02*
X94829380Y-74064952D01*
X94829380Y-74303047D01*
X94877000Y-74445904D01*
X94972238Y-74541142D01*
X95067476Y-74588761D01*
X95257952Y-74636380D01*
X95400809Y-74636380D01*
X95591285Y-74588761D01*
X95686523Y-74541142D01*
X95781761Y-74445904D01*
X95829380Y-74303047D01*
X95829380Y-74064952D01*
X95734142Y-75636380D02*
X95781761Y-75588761D01*
X95829380Y-75445904D01*
X95829380Y-75350666D01*
X95781761Y-75207809D01*
X95686523Y-75112571D01*
X95591285Y-75064952D01*
X95400809Y-75017333D01*
X95257952Y-75017333D01*
X95067476Y-75064952D01*
X94972238Y-75112571D01*
X94877000Y-75207809D01*
X94829380Y-75350666D01*
X94829380Y-75445904D01*
X94877000Y-75588761D01*
X94924619Y-75636380D01*
X95829380Y-76064952D02*
X94829380Y-76064952D01*
X94829380Y-76303047D01*
X94877000Y-76445904D01*
X94972238Y-76541142D01*
X95067476Y-76588761D01*
X95257952Y-76636380D01*
X95400809Y-76636380D01*
X95591285Y-76588761D01*
X95686523Y-76541142D01*
X95781761Y-76445904D01*
X95829380Y-76303047D01*
X95829380Y-76064952D01*
X93194142Y-74636380D02*
X93241761Y-74588761D01*
X93289380Y-74445904D01*
X93289380Y-74350666D01*
X93241761Y-74207809D01*
X93146523Y-74112571D01*
X93051285Y-74064952D01*
X92860809Y-74017333D01*
X92717952Y-74017333D01*
X92527476Y-74064952D01*
X92432238Y-74112571D01*
X92337000Y-74207809D01*
X92289380Y-74350666D01*
X92289380Y-74445904D01*
X92337000Y-74588761D01*
X92384619Y-74636380D01*
X92289380Y-74922095D02*
X92289380Y-75493523D01*
X93289380Y-75207809D02*
X92289380Y-75207809D01*
X93241761Y-75779238D02*
X93289380Y-75922095D01*
X93289380Y-76160190D01*
X93241761Y-76255428D01*
X93194142Y-76303047D01*
X93098904Y-76350666D01*
X93003666Y-76350666D01*
X92908428Y-76303047D01*
X92860809Y-76255428D01*
X92813190Y-76160190D01*
X92765571Y-75969714D01*
X92717952Y-75874476D01*
X92670333Y-75826857D01*
X92575095Y-75779238D01*
X92479857Y-75779238D01*
X92384619Y-75826857D01*
X92337000Y-75874476D01*
X92289380Y-75969714D01*
X92289380Y-76207809D01*
X92337000Y-76350666D01*
X107402380Y-83724904D02*
X107402380Y-84296333D01*
X108402380Y-84010619D02*
X107402380Y-84010619D01*
X107402380Y-84534428D02*
X108402380Y-85201095D01*
X107402380Y-85201095D02*
X108402380Y-84534428D01*
X107402380Y-85772523D02*
X107402380Y-85867761D01*
X107450000Y-85963000D01*
X107497619Y-86010619D01*
X107592857Y-86058238D01*
X107783333Y-86105857D01*
X108021428Y-86105857D01*
X108211904Y-86058238D01*
X108307142Y-86010619D01*
X108354761Y-85963000D01*
X108402380Y-85867761D01*
X108402380Y-85772523D01*
X108354761Y-85677285D01*
X108307142Y-85629666D01*
X108211904Y-85582047D01*
X108021428Y-85534428D01*
X107783333Y-85534428D01*
X107592857Y-85582047D01*
X107497619Y-85629666D01*
X107450000Y-85677285D01*
X107402380Y-85772523D01*
X105862380Y-83772523D02*
X104862380Y-83772523D01*
X104862380Y-84010619D01*
X104910000Y-84153476D01*
X105005238Y-84248714D01*
X105100476Y-84296333D01*
X105290952Y-84343952D01*
X105433809Y-84343952D01*
X105624285Y-84296333D01*
X105719523Y-84248714D01*
X105814761Y-84153476D01*
X105862380Y-84010619D01*
X105862380Y-83772523D01*
X104862380Y-84629666D02*
X104862380Y-85201095D01*
X105862380Y-84915381D02*
X104862380Y-84915381D01*
X105862380Y-86105857D02*
X105386190Y-85772523D01*
X105862380Y-85534428D02*
X104862380Y-85534428D01*
X104862380Y-85915381D01*
X104910000Y-86010619D01*
X104957619Y-86058238D01*
X105052857Y-86105857D01*
X105195714Y-86105857D01*
X105290952Y-86058238D01*
X105338571Y-86010619D01*
X105386190Y-85915381D01*
X105386190Y-85534428D01*
X103322380Y-84391570D02*
X102846190Y-84058237D01*
X103322380Y-83820142D02*
X102322380Y-83820142D01*
X102322380Y-84201094D01*
X102370000Y-84296332D01*
X102417619Y-84343951D01*
X102512857Y-84391570D01*
X102655714Y-84391570D01*
X102750952Y-84343951D01*
X102798571Y-84296332D01*
X102846190Y-84201094D01*
X102846190Y-83820142D01*
X102322380Y-84677285D02*
X102322380Y-85248713D01*
X103322380Y-84962999D02*
X102322380Y-84962999D01*
X103274761Y-85534428D02*
X103322380Y-85677285D01*
X103322380Y-85915380D01*
X103274761Y-86010618D01*
X103227142Y-86058237D01*
X103131904Y-86105856D01*
X103036666Y-86105856D01*
X102941428Y-86058237D01*
X102893809Y-86010618D01*
X102846190Y-85915380D01*
X102798571Y-85724904D01*
X102750952Y-85629666D01*
X102703333Y-85582047D01*
X102608095Y-85534428D01*
X102512857Y-85534428D01*
X102417619Y-85582047D01*
X102370000Y-85629666D01*
X102322380Y-85724904D01*
X102322380Y-85962999D01*
X102370000Y-86105856D01*
X97290000Y-84010619D02*
X97242380Y-83915381D01*
X97242380Y-83772524D01*
X97290000Y-83629666D01*
X97385238Y-83534428D01*
X97480476Y-83486809D01*
X97670952Y-83439190D01*
X97813809Y-83439190D01*
X98004285Y-83486809D01*
X98099523Y-83534428D01*
X98194761Y-83629666D01*
X98242380Y-83772524D01*
X98242380Y-83867762D01*
X98194761Y-84010619D01*
X98147142Y-84058238D01*
X97813809Y-84058238D01*
X97813809Y-83867762D01*
X98242380Y-84486809D02*
X97242380Y-84486809D01*
X98242380Y-85058238D01*
X97242380Y-85058238D01*
X98242380Y-85534428D02*
X97242380Y-85534428D01*
X97242380Y-85772524D01*
X97290000Y-85915381D01*
X97385238Y-86010619D01*
X97480476Y-86058238D01*
X97670952Y-86105857D01*
X97813809Y-86105857D01*
X98004285Y-86058238D01*
X98099523Y-86010619D01*
X98194761Y-85915381D01*
X98242380Y-85772524D01*
X98242380Y-85534428D01*
X95702380Y-83391571D02*
X94702380Y-83391571D01*
X94702380Y-83772524D01*
X94750000Y-83867762D01*
X94797619Y-83915381D01*
X94892857Y-83963000D01*
X95035714Y-83963000D01*
X95130952Y-83915381D01*
X95178571Y-83867762D01*
X95226190Y-83772524D01*
X95226190Y-83391571D01*
X94702380Y-84296333D02*
X95702380Y-84534428D01*
X94988095Y-84724905D01*
X95702380Y-84915381D01*
X94702380Y-85153476D01*
X95702380Y-86105857D02*
X95226190Y-85772524D01*
X95702380Y-85534428D02*
X94702380Y-85534428D01*
X94702380Y-85915381D01*
X94750000Y-86010619D01*
X94797619Y-86058238D01*
X94892857Y-86105857D01*
X95035714Y-86105857D01*
X95130952Y-86058238D01*
X95178571Y-86010619D01*
X95226190Y-85915381D01*
X95226190Y-85534428D01*
X92210000Y-84010619D02*
X92162380Y-83915381D01*
X92162380Y-83772524D01*
X92210000Y-83629666D01*
X92305238Y-83534428D01*
X92400476Y-83486809D01*
X92590952Y-83439190D01*
X92733809Y-83439190D01*
X92924285Y-83486809D01*
X93019523Y-83534428D01*
X93114761Y-83629666D01*
X93162380Y-83772524D01*
X93162380Y-83867762D01*
X93114761Y-84010619D01*
X93067142Y-84058238D01*
X92733809Y-84058238D01*
X92733809Y-83867762D01*
X93162380Y-84486809D02*
X92162380Y-84486809D01*
X93162380Y-85058238D01*
X92162380Y-85058238D01*
X93162380Y-85534428D02*
X92162380Y-85534428D01*
X92162380Y-85772524D01*
X92210000Y-85915381D01*
X92305238Y-86010619D01*
X92400476Y-86058238D01*
X92590952Y-86105857D01*
X92733809Y-86105857D01*
X92924285Y-86058238D01*
X93019523Y-86010619D01*
X93114761Y-85915381D01*
X93162380Y-85772524D01*
X93162380Y-85534428D01*
M02*
