G04 #@! TF.GenerationSoftware,KiCad,Pcbnew,(5.0.1)-3*
G04 #@! TF.CreationDate,2019-07-12T23:00:33+01:00*
G04 #@! TF.ProjectId,UsbToSerial,557362546F53657269616C2E6B696361,rev?*
G04 #@! TF.SameCoordinates,Original*
G04 #@! TF.FileFunction,Soldermask,Top*
G04 #@! TF.FilePolarity,Negative*
%FSLAX46Y46*%
G04 Gerber Fmt 4.6, Leading zero omitted, Abs format (unit mm)*
G04 Created by KiCad (PCBNEW (5.0.1)-3) date 12/07/2019 23:00:33*
%MOMM*%
%LPD*%
G01*
G04 APERTURE LIST*
%ADD10C,0.100000*%
G04 APERTURE END LIST*
D10*
G36*
X107425443Y-89275519D02*
X107491627Y-89282037D01*
X107604853Y-89316384D01*
X107661467Y-89333557D01*
X107800087Y-89407652D01*
X107817991Y-89417222D01*
X107853729Y-89446552D01*
X107955186Y-89529814D01*
X108038448Y-89631271D01*
X108067778Y-89667009D01*
X108067779Y-89667011D01*
X108151443Y-89823533D01*
X108151443Y-89823534D01*
X108202963Y-89993373D01*
X108220359Y-90170000D01*
X108202963Y-90346627D01*
X108168616Y-90459853D01*
X108151443Y-90516467D01*
X108077348Y-90655087D01*
X108067778Y-90672991D01*
X108038448Y-90708729D01*
X107955186Y-90810186D01*
X107853729Y-90893448D01*
X107817991Y-90922778D01*
X107817989Y-90922779D01*
X107661467Y-91006443D01*
X107604853Y-91023616D01*
X107491627Y-91057963D01*
X107425442Y-91064482D01*
X107359260Y-91071000D01*
X107270740Y-91071000D01*
X107204558Y-91064482D01*
X107138373Y-91057963D01*
X107025147Y-91023616D01*
X106968533Y-91006443D01*
X106812011Y-90922779D01*
X106812009Y-90922778D01*
X106776271Y-90893448D01*
X106674814Y-90810186D01*
X106591552Y-90708729D01*
X106562222Y-90672991D01*
X106552652Y-90655087D01*
X106478557Y-90516467D01*
X106461384Y-90459853D01*
X106427037Y-90346627D01*
X106409641Y-90170000D01*
X106427037Y-89993373D01*
X106478557Y-89823534D01*
X106478557Y-89823533D01*
X106562221Y-89667011D01*
X106562222Y-89667009D01*
X106591552Y-89631271D01*
X106674814Y-89529814D01*
X106776271Y-89446552D01*
X106812009Y-89417222D01*
X106829913Y-89407652D01*
X106968533Y-89333557D01*
X107025147Y-89316384D01*
X107138373Y-89282037D01*
X107204557Y-89275519D01*
X107270740Y-89269000D01*
X107359260Y-89269000D01*
X107425443Y-89275519D01*
X107425443Y-89275519D01*
G37*
G36*
X104885443Y-89275519D02*
X104951627Y-89282037D01*
X105064853Y-89316384D01*
X105121467Y-89333557D01*
X105260087Y-89407652D01*
X105277991Y-89417222D01*
X105313729Y-89446552D01*
X105415186Y-89529814D01*
X105498448Y-89631271D01*
X105527778Y-89667009D01*
X105527779Y-89667011D01*
X105611443Y-89823533D01*
X105611443Y-89823534D01*
X105662963Y-89993373D01*
X105680359Y-90170000D01*
X105662963Y-90346627D01*
X105628616Y-90459853D01*
X105611443Y-90516467D01*
X105537348Y-90655087D01*
X105527778Y-90672991D01*
X105498448Y-90708729D01*
X105415186Y-90810186D01*
X105313729Y-90893448D01*
X105277991Y-90922778D01*
X105277989Y-90922779D01*
X105121467Y-91006443D01*
X105064853Y-91023616D01*
X104951627Y-91057963D01*
X104885442Y-91064482D01*
X104819260Y-91071000D01*
X104730740Y-91071000D01*
X104664558Y-91064482D01*
X104598373Y-91057963D01*
X104485147Y-91023616D01*
X104428533Y-91006443D01*
X104272011Y-90922779D01*
X104272009Y-90922778D01*
X104236271Y-90893448D01*
X104134814Y-90810186D01*
X104051552Y-90708729D01*
X104022222Y-90672991D01*
X104012652Y-90655087D01*
X103938557Y-90516467D01*
X103921384Y-90459853D01*
X103887037Y-90346627D01*
X103869641Y-90170000D01*
X103887037Y-89993373D01*
X103938557Y-89823534D01*
X103938557Y-89823533D01*
X104022221Y-89667011D01*
X104022222Y-89667009D01*
X104051552Y-89631271D01*
X104134814Y-89529814D01*
X104236271Y-89446552D01*
X104272009Y-89417222D01*
X104289913Y-89407652D01*
X104428533Y-89333557D01*
X104485147Y-89316384D01*
X104598373Y-89282037D01*
X104664557Y-89275519D01*
X104730740Y-89269000D01*
X104819260Y-89269000D01*
X104885443Y-89275519D01*
X104885443Y-89275519D01*
G37*
G36*
X92976000Y-91071000D02*
X91174000Y-91071000D01*
X91174000Y-89269000D01*
X92976000Y-89269000D01*
X92976000Y-91071000D01*
X92976000Y-91071000D01*
G37*
G36*
X94725443Y-89275519D02*
X94791627Y-89282037D01*
X94904853Y-89316384D01*
X94961467Y-89333557D01*
X95100087Y-89407652D01*
X95117991Y-89417222D01*
X95153729Y-89446552D01*
X95255186Y-89529814D01*
X95338448Y-89631271D01*
X95367778Y-89667009D01*
X95367779Y-89667011D01*
X95451443Y-89823533D01*
X95451443Y-89823534D01*
X95502963Y-89993373D01*
X95520359Y-90170000D01*
X95502963Y-90346627D01*
X95468616Y-90459853D01*
X95451443Y-90516467D01*
X95377348Y-90655087D01*
X95367778Y-90672991D01*
X95338448Y-90708729D01*
X95255186Y-90810186D01*
X95153729Y-90893448D01*
X95117991Y-90922778D01*
X95117989Y-90922779D01*
X94961467Y-91006443D01*
X94904853Y-91023616D01*
X94791627Y-91057963D01*
X94725442Y-91064482D01*
X94659260Y-91071000D01*
X94570740Y-91071000D01*
X94504558Y-91064482D01*
X94438373Y-91057963D01*
X94325147Y-91023616D01*
X94268533Y-91006443D01*
X94112011Y-90922779D01*
X94112009Y-90922778D01*
X94076271Y-90893448D01*
X93974814Y-90810186D01*
X93891552Y-90708729D01*
X93862222Y-90672991D01*
X93852652Y-90655087D01*
X93778557Y-90516467D01*
X93761384Y-90459853D01*
X93727037Y-90346627D01*
X93709641Y-90170000D01*
X93727037Y-89993373D01*
X93778557Y-89823534D01*
X93778557Y-89823533D01*
X93862221Y-89667011D01*
X93862222Y-89667009D01*
X93891552Y-89631271D01*
X93974814Y-89529814D01*
X94076271Y-89446552D01*
X94112009Y-89417222D01*
X94129913Y-89407652D01*
X94268533Y-89333557D01*
X94325147Y-89316384D01*
X94438373Y-89282037D01*
X94504557Y-89275519D01*
X94570740Y-89269000D01*
X94659260Y-89269000D01*
X94725443Y-89275519D01*
X94725443Y-89275519D01*
G37*
G36*
X97265443Y-89275519D02*
X97331627Y-89282037D01*
X97444853Y-89316384D01*
X97501467Y-89333557D01*
X97640087Y-89407652D01*
X97657991Y-89417222D01*
X97693729Y-89446552D01*
X97795186Y-89529814D01*
X97878448Y-89631271D01*
X97907778Y-89667009D01*
X97907779Y-89667011D01*
X97991443Y-89823533D01*
X97991443Y-89823534D01*
X98042963Y-89993373D01*
X98060359Y-90170000D01*
X98042963Y-90346627D01*
X98008616Y-90459853D01*
X97991443Y-90516467D01*
X97917348Y-90655087D01*
X97907778Y-90672991D01*
X97878448Y-90708729D01*
X97795186Y-90810186D01*
X97693729Y-90893448D01*
X97657991Y-90922778D01*
X97657989Y-90922779D01*
X97501467Y-91006443D01*
X97444853Y-91023616D01*
X97331627Y-91057963D01*
X97265442Y-91064482D01*
X97199260Y-91071000D01*
X97110740Y-91071000D01*
X97044558Y-91064482D01*
X96978373Y-91057963D01*
X96865147Y-91023616D01*
X96808533Y-91006443D01*
X96652011Y-90922779D01*
X96652009Y-90922778D01*
X96616271Y-90893448D01*
X96514814Y-90810186D01*
X96431552Y-90708729D01*
X96402222Y-90672991D01*
X96392652Y-90655087D01*
X96318557Y-90516467D01*
X96301384Y-90459853D01*
X96267037Y-90346627D01*
X96249641Y-90170000D01*
X96267037Y-89993373D01*
X96318557Y-89823534D01*
X96318557Y-89823533D01*
X96402221Y-89667011D01*
X96402222Y-89667009D01*
X96431552Y-89631271D01*
X96514814Y-89529814D01*
X96616271Y-89446552D01*
X96652009Y-89417222D01*
X96669913Y-89407652D01*
X96808533Y-89333557D01*
X96865147Y-89316384D01*
X96978373Y-89282037D01*
X97044557Y-89275519D01*
X97110740Y-89269000D01*
X97199260Y-89269000D01*
X97265443Y-89275519D01*
X97265443Y-89275519D01*
G37*
G36*
X99805443Y-89275519D02*
X99871627Y-89282037D01*
X99984853Y-89316384D01*
X100041467Y-89333557D01*
X100180087Y-89407652D01*
X100197991Y-89417222D01*
X100233729Y-89446552D01*
X100335186Y-89529814D01*
X100418448Y-89631271D01*
X100447778Y-89667009D01*
X100447779Y-89667011D01*
X100531443Y-89823533D01*
X100531443Y-89823534D01*
X100582963Y-89993373D01*
X100600359Y-90170000D01*
X100582963Y-90346627D01*
X100548616Y-90459853D01*
X100531443Y-90516467D01*
X100457348Y-90655087D01*
X100447778Y-90672991D01*
X100418448Y-90708729D01*
X100335186Y-90810186D01*
X100233729Y-90893448D01*
X100197991Y-90922778D01*
X100197989Y-90922779D01*
X100041467Y-91006443D01*
X99984853Y-91023616D01*
X99871627Y-91057963D01*
X99805442Y-91064482D01*
X99739260Y-91071000D01*
X99650740Y-91071000D01*
X99584558Y-91064482D01*
X99518373Y-91057963D01*
X99405147Y-91023616D01*
X99348533Y-91006443D01*
X99192011Y-90922779D01*
X99192009Y-90922778D01*
X99156271Y-90893448D01*
X99054814Y-90810186D01*
X98971552Y-90708729D01*
X98942222Y-90672991D01*
X98932652Y-90655087D01*
X98858557Y-90516467D01*
X98841384Y-90459853D01*
X98807037Y-90346627D01*
X98789641Y-90170000D01*
X98807037Y-89993373D01*
X98858557Y-89823534D01*
X98858557Y-89823533D01*
X98942221Y-89667011D01*
X98942222Y-89667009D01*
X98971552Y-89631271D01*
X99054814Y-89529814D01*
X99156271Y-89446552D01*
X99192009Y-89417222D01*
X99209913Y-89407652D01*
X99348533Y-89333557D01*
X99405147Y-89316384D01*
X99518373Y-89282037D01*
X99584557Y-89275519D01*
X99650740Y-89269000D01*
X99739260Y-89269000D01*
X99805443Y-89275519D01*
X99805443Y-89275519D01*
G37*
G36*
X102345443Y-89275519D02*
X102411627Y-89282037D01*
X102524853Y-89316384D01*
X102581467Y-89333557D01*
X102720087Y-89407652D01*
X102737991Y-89417222D01*
X102773729Y-89446552D01*
X102875186Y-89529814D01*
X102958448Y-89631271D01*
X102987778Y-89667009D01*
X102987779Y-89667011D01*
X103071443Y-89823533D01*
X103071443Y-89823534D01*
X103122963Y-89993373D01*
X103140359Y-90170000D01*
X103122963Y-90346627D01*
X103088616Y-90459853D01*
X103071443Y-90516467D01*
X102997348Y-90655087D01*
X102987778Y-90672991D01*
X102958448Y-90708729D01*
X102875186Y-90810186D01*
X102773729Y-90893448D01*
X102737991Y-90922778D01*
X102737989Y-90922779D01*
X102581467Y-91006443D01*
X102524853Y-91023616D01*
X102411627Y-91057963D01*
X102345442Y-91064482D01*
X102279260Y-91071000D01*
X102190740Y-91071000D01*
X102124558Y-91064482D01*
X102058373Y-91057963D01*
X101945147Y-91023616D01*
X101888533Y-91006443D01*
X101732011Y-90922779D01*
X101732009Y-90922778D01*
X101696271Y-90893448D01*
X101594814Y-90810186D01*
X101511552Y-90708729D01*
X101482222Y-90672991D01*
X101472652Y-90655087D01*
X101398557Y-90516467D01*
X101381384Y-90459853D01*
X101347037Y-90346627D01*
X101329641Y-90170000D01*
X101347037Y-89993373D01*
X101398557Y-89823534D01*
X101398557Y-89823533D01*
X101482221Y-89667011D01*
X101482222Y-89667009D01*
X101511552Y-89631271D01*
X101594814Y-89529814D01*
X101696271Y-89446552D01*
X101732009Y-89417222D01*
X101749913Y-89407652D01*
X101888533Y-89333557D01*
X101945147Y-89316384D01*
X102058373Y-89282037D01*
X102124557Y-89275519D01*
X102190740Y-89269000D01*
X102279260Y-89269000D01*
X102345443Y-89275519D01*
X102345443Y-89275519D01*
G37*
G36*
X86241000Y-89751000D02*
X83939000Y-89751000D01*
X83939000Y-88049000D01*
X86241000Y-88049000D01*
X86241000Y-89751000D01*
X86241000Y-89751000D01*
G37*
G36*
X83241000Y-89751000D02*
X80939000Y-89751000D01*
X80939000Y-88049000D01*
X83241000Y-88049000D01*
X83241000Y-89751000D01*
X83241000Y-89751000D01*
G37*
G36*
X88607091Y-84568085D02*
X88641069Y-84578393D01*
X88672387Y-84595133D01*
X88699839Y-84617661D01*
X88722367Y-84645113D01*
X88739107Y-84676431D01*
X88749415Y-84710409D01*
X88753500Y-84751890D01*
X88753500Y-85428110D01*
X88749415Y-85469591D01*
X88739107Y-85503569D01*
X88722367Y-85534887D01*
X88699839Y-85562339D01*
X88672387Y-85584867D01*
X88641069Y-85601607D01*
X88607091Y-85611915D01*
X88565610Y-85616000D01*
X87964390Y-85616000D01*
X87922909Y-85611915D01*
X87888931Y-85601607D01*
X87857613Y-85584867D01*
X87830161Y-85562339D01*
X87807633Y-85534887D01*
X87790893Y-85503569D01*
X87780585Y-85469591D01*
X87776500Y-85428110D01*
X87776500Y-84751890D01*
X87780585Y-84710409D01*
X87790893Y-84676431D01*
X87807633Y-84645113D01*
X87830161Y-84617661D01*
X87857613Y-84595133D01*
X87888931Y-84578393D01*
X87922909Y-84568085D01*
X87964390Y-84564000D01*
X88565610Y-84564000D01*
X88607091Y-84568085D01*
X88607091Y-84568085D01*
G37*
G36*
X84492091Y-84568085D02*
X84526069Y-84578393D01*
X84557387Y-84595133D01*
X84584839Y-84617661D01*
X84607367Y-84645113D01*
X84624107Y-84676431D01*
X84634415Y-84710409D01*
X84638500Y-84751890D01*
X84638500Y-85428110D01*
X84634415Y-85469591D01*
X84624107Y-85503569D01*
X84607367Y-85534887D01*
X84584839Y-85562339D01*
X84557387Y-85584867D01*
X84526069Y-85601607D01*
X84492091Y-85611915D01*
X84450610Y-85616000D01*
X83849390Y-85616000D01*
X83807909Y-85611915D01*
X83773931Y-85601607D01*
X83742613Y-85584867D01*
X83715161Y-85562339D01*
X83692633Y-85534887D01*
X83675893Y-85503569D01*
X83665585Y-85469591D01*
X83661500Y-85428110D01*
X83661500Y-84751890D01*
X83665585Y-84710409D01*
X83675893Y-84676431D01*
X83692633Y-84645113D01*
X83715161Y-84617661D01*
X83742613Y-84595133D01*
X83773931Y-84578393D01*
X83807909Y-84568085D01*
X83849390Y-84564000D01*
X84450610Y-84564000D01*
X84492091Y-84568085D01*
X84492091Y-84568085D01*
G37*
G36*
X86067091Y-84568085D02*
X86101069Y-84578393D01*
X86132387Y-84595133D01*
X86159839Y-84617661D01*
X86182367Y-84645113D01*
X86199107Y-84676431D01*
X86209415Y-84710409D01*
X86213500Y-84751890D01*
X86213500Y-85428110D01*
X86209415Y-85469591D01*
X86199107Y-85503569D01*
X86182367Y-85534887D01*
X86159839Y-85562339D01*
X86132387Y-85584867D01*
X86101069Y-85601607D01*
X86067091Y-85611915D01*
X86025610Y-85616000D01*
X85424390Y-85616000D01*
X85382909Y-85611915D01*
X85348931Y-85601607D01*
X85317613Y-85584867D01*
X85290161Y-85562339D01*
X85267633Y-85534887D01*
X85250893Y-85503569D01*
X85240585Y-85469591D01*
X85236500Y-85428110D01*
X85236500Y-84751890D01*
X85240585Y-84710409D01*
X85250893Y-84676431D01*
X85267633Y-84645113D01*
X85290161Y-84617661D01*
X85317613Y-84595133D01*
X85348931Y-84578393D01*
X85382909Y-84568085D01*
X85424390Y-84564000D01*
X86025610Y-84564000D01*
X86067091Y-84568085D01*
X86067091Y-84568085D01*
G37*
G36*
X90182091Y-84568085D02*
X90216069Y-84578393D01*
X90247387Y-84595133D01*
X90274839Y-84617661D01*
X90297367Y-84645113D01*
X90314107Y-84676431D01*
X90324415Y-84710409D01*
X90328500Y-84751890D01*
X90328500Y-85428110D01*
X90324415Y-85469591D01*
X90314107Y-85503569D01*
X90297367Y-85534887D01*
X90274839Y-85562339D01*
X90247387Y-85584867D01*
X90216069Y-85601607D01*
X90182091Y-85611915D01*
X90140610Y-85616000D01*
X89539390Y-85616000D01*
X89497909Y-85611915D01*
X89463931Y-85601607D01*
X89432613Y-85584867D01*
X89405161Y-85562339D01*
X89382633Y-85534887D01*
X89365893Y-85503569D01*
X89355585Y-85469591D01*
X89351500Y-85428110D01*
X89351500Y-84751890D01*
X89355585Y-84710409D01*
X89365893Y-84676431D01*
X89382633Y-84645113D01*
X89405161Y-84617661D01*
X89432613Y-84595133D01*
X89463931Y-84578393D01*
X89497909Y-84568085D01*
X89539390Y-84564000D01*
X90140610Y-84564000D01*
X90182091Y-84568085D01*
X90182091Y-84568085D01*
G37*
G36*
X78712916Y-84287334D02*
X78821492Y-84320271D01*
X78921557Y-84373756D01*
X79009264Y-84445736D01*
X79081244Y-84533443D01*
X79134729Y-84633508D01*
X79167666Y-84742084D01*
X79178787Y-84855000D01*
X79167666Y-84967916D01*
X79134729Y-85076492D01*
X79081244Y-85176557D01*
X79009264Y-85264264D01*
X78921557Y-85336244D01*
X78821492Y-85389729D01*
X78712916Y-85422666D01*
X78628298Y-85431000D01*
X77721702Y-85431000D01*
X77637084Y-85422666D01*
X77528508Y-85389729D01*
X77428443Y-85336244D01*
X77340736Y-85264264D01*
X77268756Y-85176557D01*
X77215271Y-85076492D01*
X77182334Y-84967916D01*
X77171213Y-84855000D01*
X77182334Y-84742084D01*
X77215271Y-84633508D01*
X77268756Y-84533443D01*
X77340736Y-84445736D01*
X77428443Y-84373756D01*
X77528508Y-84320271D01*
X77637084Y-84287334D01*
X77721702Y-84279000D01*
X78628298Y-84279000D01*
X78712916Y-84287334D01*
X78712916Y-84287334D01*
G37*
G36*
X101021000Y-83266000D02*
X92019000Y-83266000D01*
X92019000Y-81414000D01*
X101021000Y-81414000D01*
X101021000Y-83266000D01*
X101021000Y-83266000D01*
G37*
G36*
X81576000Y-82831000D02*
X80074000Y-82831000D01*
X80074000Y-82329000D01*
X81576000Y-82329000D01*
X81576000Y-82831000D01*
X81576000Y-82831000D01*
G37*
G36*
X81576000Y-81531000D02*
X80074000Y-81531000D01*
X80074000Y-79729000D01*
X81576000Y-79729000D01*
X81576000Y-81531000D01*
X81576000Y-81531000D01*
G37*
G36*
X109648604Y-79088347D02*
X109685145Y-79099432D01*
X109718820Y-79117431D01*
X109748341Y-79141659D01*
X109772569Y-79171180D01*
X109790568Y-79204855D01*
X109801653Y-79241396D01*
X109806000Y-79285538D01*
X109806000Y-80734462D01*
X109801653Y-80778604D01*
X109790568Y-80815145D01*
X109772569Y-80848820D01*
X109748341Y-80878341D01*
X109718820Y-80902569D01*
X109685145Y-80920568D01*
X109648604Y-80931653D01*
X109604462Y-80936000D01*
X108655538Y-80936000D01*
X108611396Y-80931653D01*
X108574855Y-80920568D01*
X108541180Y-80902569D01*
X108511659Y-80878341D01*
X108487431Y-80848820D01*
X108469432Y-80815145D01*
X108458347Y-80778604D01*
X108454000Y-80734462D01*
X108454000Y-79285538D01*
X108458347Y-79241396D01*
X108469432Y-79204855D01*
X108487431Y-79171180D01*
X108511659Y-79141659D01*
X108541180Y-79117431D01*
X108574855Y-79099432D01*
X108611396Y-79088347D01*
X108655538Y-79084000D01*
X109604462Y-79084000D01*
X109648604Y-79088347D01*
X109648604Y-79088347D01*
G37*
G36*
X112448604Y-79088347D02*
X112485145Y-79099432D01*
X112518820Y-79117431D01*
X112548341Y-79141659D01*
X112572569Y-79171180D01*
X112590568Y-79204855D01*
X112601653Y-79241396D01*
X112606000Y-79285538D01*
X112606000Y-80734462D01*
X112601653Y-80778604D01*
X112590568Y-80815145D01*
X112572569Y-80848820D01*
X112548341Y-80878341D01*
X112518820Y-80902569D01*
X112485145Y-80920568D01*
X112448604Y-80931653D01*
X112404462Y-80936000D01*
X111455538Y-80936000D01*
X111411396Y-80931653D01*
X111374855Y-80920568D01*
X111341180Y-80902569D01*
X111311659Y-80878341D01*
X111287431Y-80848820D01*
X111269432Y-80815145D01*
X111258347Y-80778604D01*
X111254000Y-80734462D01*
X111254000Y-79285538D01*
X111258347Y-79241396D01*
X111269432Y-79204855D01*
X111287431Y-79171180D01*
X111311659Y-79141659D01*
X111341180Y-79117431D01*
X111374855Y-79099432D01*
X111411396Y-79088347D01*
X111455538Y-79084000D01*
X112404462Y-79084000D01*
X112448604Y-79088347D01*
X112448604Y-79088347D01*
G37*
G36*
X105447091Y-79488085D02*
X105481069Y-79498393D01*
X105512387Y-79515133D01*
X105539839Y-79537661D01*
X105562367Y-79565113D01*
X105579107Y-79596431D01*
X105589415Y-79630409D01*
X105593500Y-79671890D01*
X105593500Y-80348110D01*
X105589415Y-80389591D01*
X105579107Y-80423569D01*
X105562367Y-80454887D01*
X105539839Y-80482339D01*
X105512387Y-80504867D01*
X105481069Y-80521607D01*
X105447091Y-80531915D01*
X105405610Y-80536000D01*
X104804390Y-80536000D01*
X104762909Y-80531915D01*
X104728931Y-80521607D01*
X104697613Y-80504867D01*
X104670161Y-80482339D01*
X104647633Y-80454887D01*
X104630893Y-80423569D01*
X104620585Y-80389591D01*
X104616500Y-80348110D01*
X104616500Y-79671890D01*
X104620585Y-79630409D01*
X104630893Y-79596431D01*
X104647633Y-79565113D01*
X104670161Y-79537661D01*
X104697613Y-79515133D01*
X104728931Y-79498393D01*
X104762909Y-79488085D01*
X104804390Y-79484000D01*
X105405610Y-79484000D01*
X105447091Y-79488085D01*
X105447091Y-79488085D01*
G37*
G36*
X107022091Y-79488085D02*
X107056069Y-79498393D01*
X107087387Y-79515133D01*
X107114839Y-79537661D01*
X107137367Y-79565113D01*
X107154107Y-79596431D01*
X107164415Y-79630409D01*
X107168500Y-79671890D01*
X107168500Y-80348110D01*
X107164415Y-80389591D01*
X107154107Y-80423569D01*
X107137367Y-80454887D01*
X107114839Y-80482339D01*
X107087387Y-80504867D01*
X107056069Y-80521607D01*
X107022091Y-80531915D01*
X106980610Y-80536000D01*
X106379390Y-80536000D01*
X106337909Y-80531915D01*
X106303931Y-80521607D01*
X106272613Y-80504867D01*
X106245161Y-80482339D01*
X106222633Y-80454887D01*
X106205893Y-80423569D01*
X106195585Y-80389591D01*
X106191500Y-80348110D01*
X106191500Y-79671890D01*
X106195585Y-79630409D01*
X106205893Y-79596431D01*
X106222633Y-79565113D01*
X106245161Y-79537661D01*
X106272613Y-79515133D01*
X106303931Y-79498393D01*
X106337909Y-79488085D01*
X106379390Y-79484000D01*
X106980610Y-79484000D01*
X107022091Y-79488085D01*
X107022091Y-79488085D01*
G37*
G36*
X86878604Y-77183347D02*
X86915145Y-77194432D01*
X86948820Y-77212431D01*
X86978341Y-77236659D01*
X87002569Y-77266180D01*
X87020568Y-77299855D01*
X87031653Y-77336396D01*
X87036000Y-77380538D01*
X87036000Y-78829462D01*
X87031653Y-78873604D01*
X87020568Y-78910145D01*
X87002569Y-78943820D01*
X86978341Y-78973341D01*
X86948820Y-78997569D01*
X86915145Y-79015568D01*
X86878604Y-79026653D01*
X86834462Y-79031000D01*
X85885538Y-79031000D01*
X85841396Y-79026653D01*
X85804855Y-79015568D01*
X85771180Y-78997569D01*
X85741659Y-78973341D01*
X85717431Y-78943820D01*
X85699432Y-78910145D01*
X85688347Y-78873604D01*
X85684000Y-78829462D01*
X85684000Y-77380538D01*
X85688347Y-77336396D01*
X85699432Y-77299855D01*
X85717431Y-77266180D01*
X85741659Y-77236659D01*
X85771180Y-77212431D01*
X85804855Y-77194432D01*
X85841396Y-77183347D01*
X85885538Y-77179000D01*
X86834462Y-77179000D01*
X86878604Y-77183347D01*
X86878604Y-77183347D01*
G37*
G36*
X84078604Y-77183347D02*
X84115145Y-77194432D01*
X84148820Y-77212431D01*
X84178341Y-77236659D01*
X84202569Y-77266180D01*
X84220568Y-77299855D01*
X84231653Y-77336396D01*
X84236000Y-77380538D01*
X84236000Y-78829462D01*
X84231653Y-78873604D01*
X84220568Y-78910145D01*
X84202569Y-78943820D01*
X84178341Y-78973341D01*
X84148820Y-78997569D01*
X84115145Y-79015568D01*
X84078604Y-79026653D01*
X84034462Y-79031000D01*
X83085538Y-79031000D01*
X83041396Y-79026653D01*
X83004855Y-79015568D01*
X82971180Y-78997569D01*
X82941659Y-78973341D01*
X82917431Y-78943820D01*
X82899432Y-78910145D01*
X82888347Y-78873604D01*
X82884000Y-78829462D01*
X82884000Y-77380538D01*
X82888347Y-77336396D01*
X82899432Y-77299855D01*
X82917431Y-77266180D01*
X82941659Y-77236659D01*
X82971180Y-77212431D01*
X83004855Y-77194432D01*
X83041396Y-77183347D01*
X83085538Y-77179000D01*
X84034462Y-77179000D01*
X84078604Y-77183347D01*
X84078604Y-77183347D01*
G37*
G36*
X78712916Y-77137334D02*
X78821492Y-77170271D01*
X78921557Y-77223756D01*
X79009264Y-77295736D01*
X79081244Y-77383443D01*
X79134729Y-77483508D01*
X79167666Y-77592084D01*
X79178787Y-77705000D01*
X79167666Y-77817916D01*
X79134729Y-77926492D01*
X79081244Y-78026557D01*
X79009264Y-78114264D01*
X78921557Y-78186244D01*
X78821492Y-78239729D01*
X78712916Y-78272666D01*
X78628298Y-78281000D01*
X77721702Y-78281000D01*
X77637084Y-78272666D01*
X77528508Y-78239729D01*
X77428443Y-78186244D01*
X77340736Y-78114264D01*
X77268756Y-78026557D01*
X77215271Y-77926492D01*
X77182334Y-77817916D01*
X77171213Y-77705000D01*
X77182334Y-77592084D01*
X77215271Y-77483508D01*
X77268756Y-77383443D01*
X77340736Y-77295736D01*
X77428443Y-77223756D01*
X77528508Y-77170271D01*
X77637084Y-77137334D01*
X77721702Y-77129000D01*
X78628298Y-77129000D01*
X78712916Y-77137334D01*
X78712916Y-77137334D01*
G37*
G36*
X109608604Y-75913347D02*
X109645145Y-75924432D01*
X109678820Y-75942431D01*
X109708341Y-75966659D01*
X109732569Y-75996180D01*
X109750568Y-76029855D01*
X109761653Y-76066396D01*
X109766000Y-76110538D01*
X109766000Y-77559462D01*
X109761653Y-77603604D01*
X109750568Y-77640145D01*
X109732569Y-77673820D01*
X109708341Y-77703341D01*
X109678820Y-77727569D01*
X109645145Y-77745568D01*
X109608604Y-77756653D01*
X109564462Y-77761000D01*
X108615538Y-77761000D01*
X108571396Y-77756653D01*
X108534855Y-77745568D01*
X108501180Y-77727569D01*
X108471659Y-77703341D01*
X108447431Y-77673820D01*
X108429432Y-77640145D01*
X108418347Y-77603604D01*
X108414000Y-77559462D01*
X108414000Y-76110538D01*
X108418347Y-76066396D01*
X108429432Y-76029855D01*
X108447431Y-75996180D01*
X108471659Y-75966659D01*
X108501180Y-75942431D01*
X108534855Y-75924432D01*
X108571396Y-75913347D01*
X108615538Y-75909000D01*
X109564462Y-75909000D01*
X109608604Y-75913347D01*
X109608604Y-75913347D01*
G37*
G36*
X112408604Y-75913347D02*
X112445145Y-75924432D01*
X112478820Y-75942431D01*
X112508341Y-75966659D01*
X112532569Y-75996180D01*
X112550568Y-76029855D01*
X112561653Y-76066396D01*
X112566000Y-76110538D01*
X112566000Y-77559462D01*
X112561653Y-77603604D01*
X112550568Y-77640145D01*
X112532569Y-77673820D01*
X112508341Y-77703341D01*
X112478820Y-77727569D01*
X112445145Y-77745568D01*
X112408604Y-77756653D01*
X112364462Y-77761000D01*
X111415538Y-77761000D01*
X111371396Y-77756653D01*
X111334855Y-77745568D01*
X111301180Y-77727569D01*
X111271659Y-77703341D01*
X111247431Y-77673820D01*
X111229432Y-77640145D01*
X111218347Y-77603604D01*
X111214000Y-77559462D01*
X111214000Y-76110538D01*
X111218347Y-76066396D01*
X111229432Y-76029855D01*
X111247431Y-75996180D01*
X111271659Y-75966659D01*
X111301180Y-75942431D01*
X111334855Y-75924432D01*
X111371396Y-75913347D01*
X111415538Y-75909000D01*
X112364462Y-75909000D01*
X112408604Y-75913347D01*
X112408604Y-75913347D01*
G37*
G36*
X107022091Y-76313085D02*
X107056069Y-76323393D01*
X107087387Y-76340133D01*
X107114839Y-76362661D01*
X107137367Y-76390113D01*
X107154107Y-76421431D01*
X107164415Y-76455409D01*
X107168500Y-76496890D01*
X107168500Y-77173110D01*
X107164415Y-77214591D01*
X107154107Y-77248569D01*
X107137367Y-77279887D01*
X107114839Y-77307339D01*
X107087387Y-77329867D01*
X107056069Y-77346607D01*
X107022091Y-77356915D01*
X106980610Y-77361000D01*
X106379390Y-77361000D01*
X106337909Y-77356915D01*
X106303931Y-77346607D01*
X106272613Y-77329867D01*
X106245161Y-77307339D01*
X106222633Y-77279887D01*
X106205893Y-77248569D01*
X106195585Y-77214591D01*
X106191500Y-77173110D01*
X106191500Y-76496890D01*
X106195585Y-76455409D01*
X106205893Y-76421431D01*
X106222633Y-76390113D01*
X106245161Y-76362661D01*
X106272613Y-76340133D01*
X106303931Y-76323393D01*
X106337909Y-76313085D01*
X106379390Y-76309000D01*
X106980610Y-76309000D01*
X107022091Y-76313085D01*
X107022091Y-76313085D01*
G37*
G36*
X105447091Y-76313085D02*
X105481069Y-76323393D01*
X105512387Y-76340133D01*
X105539839Y-76362661D01*
X105562367Y-76390113D01*
X105579107Y-76421431D01*
X105589415Y-76455409D01*
X105593500Y-76496890D01*
X105593500Y-77173110D01*
X105589415Y-77214591D01*
X105579107Y-77248569D01*
X105562367Y-77279887D01*
X105539839Y-77307339D01*
X105512387Y-77329867D01*
X105481069Y-77346607D01*
X105447091Y-77356915D01*
X105405610Y-77361000D01*
X104804390Y-77361000D01*
X104762909Y-77356915D01*
X104728931Y-77346607D01*
X104697613Y-77329867D01*
X104670161Y-77307339D01*
X104647633Y-77279887D01*
X104630893Y-77248569D01*
X104620585Y-77214591D01*
X104616500Y-77173110D01*
X104616500Y-76496890D01*
X104620585Y-76455409D01*
X104630893Y-76421431D01*
X104647633Y-76390113D01*
X104670161Y-76362661D01*
X104697613Y-76340133D01*
X104728931Y-76323393D01*
X104762909Y-76313085D01*
X104804390Y-76309000D01*
X105405610Y-76309000D01*
X105447091Y-76313085D01*
X105447091Y-76313085D01*
G37*
G36*
X101021000Y-76066000D02*
X92019000Y-76066000D01*
X92019000Y-74214000D01*
X101021000Y-74214000D01*
X101021000Y-76066000D01*
X101021000Y-76066000D01*
G37*
G36*
X85432091Y-74408085D02*
X85466069Y-74418393D01*
X85497387Y-74435133D01*
X85524839Y-74457661D01*
X85547367Y-74485113D01*
X85564107Y-74516431D01*
X85574415Y-74550409D01*
X85578500Y-74591890D01*
X85578500Y-75268110D01*
X85574415Y-75309591D01*
X85564107Y-75343569D01*
X85547367Y-75374887D01*
X85524839Y-75402339D01*
X85497387Y-75424867D01*
X85466069Y-75441607D01*
X85432091Y-75451915D01*
X85390610Y-75456000D01*
X84789390Y-75456000D01*
X84747909Y-75451915D01*
X84713931Y-75441607D01*
X84682613Y-75424867D01*
X84655161Y-75402339D01*
X84632633Y-75374887D01*
X84615893Y-75343569D01*
X84605585Y-75309591D01*
X84601500Y-75268110D01*
X84601500Y-74591890D01*
X84605585Y-74550409D01*
X84615893Y-74516431D01*
X84632633Y-74485113D01*
X84655161Y-74457661D01*
X84682613Y-74435133D01*
X84713931Y-74418393D01*
X84747909Y-74408085D01*
X84789390Y-74404000D01*
X85390610Y-74404000D01*
X85432091Y-74408085D01*
X85432091Y-74408085D01*
G37*
G36*
X83857091Y-74408085D02*
X83891069Y-74418393D01*
X83922387Y-74435133D01*
X83949839Y-74457661D01*
X83972367Y-74485113D01*
X83989107Y-74516431D01*
X83999415Y-74550409D01*
X84003500Y-74591890D01*
X84003500Y-75268110D01*
X83999415Y-75309591D01*
X83989107Y-75343569D01*
X83972367Y-75374887D01*
X83949839Y-75402339D01*
X83922387Y-75424867D01*
X83891069Y-75441607D01*
X83857091Y-75451915D01*
X83815610Y-75456000D01*
X83214390Y-75456000D01*
X83172909Y-75451915D01*
X83138931Y-75441607D01*
X83107613Y-75424867D01*
X83080161Y-75402339D01*
X83057633Y-75374887D01*
X83040893Y-75343569D01*
X83030585Y-75309591D01*
X83026500Y-75268110D01*
X83026500Y-74591890D01*
X83030585Y-74550409D01*
X83040893Y-74516431D01*
X83057633Y-74485113D01*
X83080161Y-74457661D01*
X83107613Y-74435133D01*
X83138931Y-74418393D01*
X83172909Y-74408085D01*
X83214390Y-74404000D01*
X83815610Y-74404000D01*
X83857091Y-74408085D01*
X83857091Y-74408085D01*
G37*
G36*
X93611000Y-70751000D02*
X91809000Y-70751000D01*
X91809000Y-68949000D01*
X93611000Y-68949000D01*
X93611000Y-70751000D01*
X93611000Y-70751000D01*
G37*
G36*
X95360443Y-68955519D02*
X95426627Y-68962037D01*
X95539853Y-68996384D01*
X95596467Y-69013557D01*
X95735087Y-69087652D01*
X95752991Y-69097222D01*
X95788729Y-69126552D01*
X95890186Y-69209814D01*
X95973448Y-69311271D01*
X96002778Y-69347009D01*
X96002779Y-69347011D01*
X96086443Y-69503533D01*
X96086443Y-69503534D01*
X96137963Y-69673373D01*
X96155359Y-69850000D01*
X96137963Y-70026627D01*
X96103616Y-70139853D01*
X96086443Y-70196467D01*
X96012348Y-70335087D01*
X96002778Y-70352991D01*
X95973448Y-70388729D01*
X95890186Y-70490186D01*
X95788729Y-70573448D01*
X95752991Y-70602778D01*
X95752989Y-70602779D01*
X95596467Y-70686443D01*
X95539853Y-70703616D01*
X95426627Y-70737963D01*
X95360443Y-70744481D01*
X95294260Y-70751000D01*
X95205740Y-70751000D01*
X95139557Y-70744481D01*
X95073373Y-70737963D01*
X94960147Y-70703616D01*
X94903533Y-70686443D01*
X94747011Y-70602779D01*
X94747009Y-70602778D01*
X94711271Y-70573448D01*
X94609814Y-70490186D01*
X94526552Y-70388729D01*
X94497222Y-70352991D01*
X94487652Y-70335087D01*
X94413557Y-70196467D01*
X94396384Y-70139853D01*
X94362037Y-70026627D01*
X94344641Y-69850000D01*
X94362037Y-69673373D01*
X94413557Y-69503534D01*
X94413557Y-69503533D01*
X94497221Y-69347011D01*
X94497222Y-69347009D01*
X94526552Y-69311271D01*
X94609814Y-69209814D01*
X94711271Y-69126552D01*
X94747009Y-69097222D01*
X94764913Y-69087652D01*
X94903533Y-69013557D01*
X94960147Y-68996384D01*
X95073373Y-68962037D01*
X95139557Y-68955519D01*
X95205740Y-68949000D01*
X95294260Y-68949000D01*
X95360443Y-68955519D01*
X95360443Y-68955519D01*
G37*
G36*
X97900443Y-68955519D02*
X97966627Y-68962037D01*
X98079853Y-68996384D01*
X98136467Y-69013557D01*
X98275087Y-69087652D01*
X98292991Y-69097222D01*
X98328729Y-69126552D01*
X98430186Y-69209814D01*
X98513448Y-69311271D01*
X98542778Y-69347009D01*
X98542779Y-69347011D01*
X98626443Y-69503533D01*
X98626443Y-69503534D01*
X98677963Y-69673373D01*
X98695359Y-69850000D01*
X98677963Y-70026627D01*
X98643616Y-70139853D01*
X98626443Y-70196467D01*
X98552348Y-70335087D01*
X98542778Y-70352991D01*
X98513448Y-70388729D01*
X98430186Y-70490186D01*
X98328729Y-70573448D01*
X98292991Y-70602778D01*
X98292989Y-70602779D01*
X98136467Y-70686443D01*
X98079853Y-70703616D01*
X97966627Y-70737963D01*
X97900443Y-70744481D01*
X97834260Y-70751000D01*
X97745740Y-70751000D01*
X97679557Y-70744481D01*
X97613373Y-70737963D01*
X97500147Y-70703616D01*
X97443533Y-70686443D01*
X97287011Y-70602779D01*
X97287009Y-70602778D01*
X97251271Y-70573448D01*
X97149814Y-70490186D01*
X97066552Y-70388729D01*
X97037222Y-70352991D01*
X97027652Y-70335087D01*
X96953557Y-70196467D01*
X96936384Y-70139853D01*
X96902037Y-70026627D01*
X96884641Y-69850000D01*
X96902037Y-69673373D01*
X96953557Y-69503534D01*
X96953557Y-69503533D01*
X97037221Y-69347011D01*
X97037222Y-69347009D01*
X97066552Y-69311271D01*
X97149814Y-69209814D01*
X97251271Y-69126552D01*
X97287009Y-69097222D01*
X97304913Y-69087652D01*
X97443533Y-69013557D01*
X97500147Y-68996384D01*
X97613373Y-68962037D01*
X97679557Y-68955519D01*
X97745740Y-68949000D01*
X97834260Y-68949000D01*
X97900443Y-68955519D01*
X97900443Y-68955519D01*
G37*
G36*
X100440443Y-68955519D02*
X100506627Y-68962037D01*
X100619853Y-68996384D01*
X100676467Y-69013557D01*
X100815087Y-69087652D01*
X100832991Y-69097222D01*
X100868729Y-69126552D01*
X100970186Y-69209814D01*
X101053448Y-69311271D01*
X101082778Y-69347009D01*
X101082779Y-69347011D01*
X101166443Y-69503533D01*
X101166443Y-69503534D01*
X101217963Y-69673373D01*
X101235359Y-69850000D01*
X101217963Y-70026627D01*
X101183616Y-70139853D01*
X101166443Y-70196467D01*
X101092348Y-70335087D01*
X101082778Y-70352991D01*
X101053448Y-70388729D01*
X100970186Y-70490186D01*
X100868729Y-70573448D01*
X100832991Y-70602778D01*
X100832989Y-70602779D01*
X100676467Y-70686443D01*
X100619853Y-70703616D01*
X100506627Y-70737963D01*
X100440443Y-70744481D01*
X100374260Y-70751000D01*
X100285740Y-70751000D01*
X100219557Y-70744481D01*
X100153373Y-70737963D01*
X100040147Y-70703616D01*
X99983533Y-70686443D01*
X99827011Y-70602779D01*
X99827009Y-70602778D01*
X99791271Y-70573448D01*
X99689814Y-70490186D01*
X99606552Y-70388729D01*
X99577222Y-70352991D01*
X99567652Y-70335087D01*
X99493557Y-70196467D01*
X99476384Y-70139853D01*
X99442037Y-70026627D01*
X99424641Y-69850000D01*
X99442037Y-69673373D01*
X99493557Y-69503534D01*
X99493557Y-69503533D01*
X99577221Y-69347011D01*
X99577222Y-69347009D01*
X99606552Y-69311271D01*
X99689814Y-69209814D01*
X99791271Y-69126552D01*
X99827009Y-69097222D01*
X99844913Y-69087652D01*
X99983533Y-69013557D01*
X100040147Y-68996384D01*
X100153373Y-68962037D01*
X100219557Y-68955519D01*
X100285740Y-68949000D01*
X100374260Y-68949000D01*
X100440443Y-68955519D01*
X100440443Y-68955519D01*
G37*
G36*
X102980443Y-68955519D02*
X103046627Y-68962037D01*
X103159853Y-68996384D01*
X103216467Y-69013557D01*
X103355087Y-69087652D01*
X103372991Y-69097222D01*
X103408729Y-69126552D01*
X103510186Y-69209814D01*
X103593448Y-69311271D01*
X103622778Y-69347009D01*
X103622779Y-69347011D01*
X103706443Y-69503533D01*
X103706443Y-69503534D01*
X103757963Y-69673373D01*
X103775359Y-69850000D01*
X103757963Y-70026627D01*
X103723616Y-70139853D01*
X103706443Y-70196467D01*
X103632348Y-70335087D01*
X103622778Y-70352991D01*
X103593448Y-70388729D01*
X103510186Y-70490186D01*
X103408729Y-70573448D01*
X103372991Y-70602778D01*
X103372989Y-70602779D01*
X103216467Y-70686443D01*
X103159853Y-70703616D01*
X103046627Y-70737963D01*
X102980443Y-70744481D01*
X102914260Y-70751000D01*
X102825740Y-70751000D01*
X102759557Y-70744481D01*
X102693373Y-70737963D01*
X102580147Y-70703616D01*
X102523533Y-70686443D01*
X102367011Y-70602779D01*
X102367009Y-70602778D01*
X102331271Y-70573448D01*
X102229814Y-70490186D01*
X102146552Y-70388729D01*
X102117222Y-70352991D01*
X102107652Y-70335087D01*
X102033557Y-70196467D01*
X102016384Y-70139853D01*
X101982037Y-70026627D01*
X101964641Y-69850000D01*
X101982037Y-69673373D01*
X102033557Y-69503534D01*
X102033557Y-69503533D01*
X102117221Y-69347011D01*
X102117222Y-69347009D01*
X102146552Y-69311271D01*
X102229814Y-69209814D01*
X102331271Y-69126552D01*
X102367009Y-69097222D01*
X102384913Y-69087652D01*
X102523533Y-69013557D01*
X102580147Y-68996384D01*
X102693373Y-68962037D01*
X102759557Y-68955519D01*
X102825740Y-68949000D01*
X102914260Y-68949000D01*
X102980443Y-68955519D01*
X102980443Y-68955519D01*
G37*
G36*
X105520443Y-68955519D02*
X105586627Y-68962037D01*
X105699853Y-68996384D01*
X105756467Y-69013557D01*
X105895087Y-69087652D01*
X105912991Y-69097222D01*
X105948729Y-69126552D01*
X106050186Y-69209814D01*
X106133448Y-69311271D01*
X106162778Y-69347009D01*
X106162779Y-69347011D01*
X106246443Y-69503533D01*
X106246443Y-69503534D01*
X106297963Y-69673373D01*
X106315359Y-69850000D01*
X106297963Y-70026627D01*
X106263616Y-70139853D01*
X106246443Y-70196467D01*
X106172348Y-70335087D01*
X106162778Y-70352991D01*
X106133448Y-70388729D01*
X106050186Y-70490186D01*
X105948729Y-70573448D01*
X105912991Y-70602778D01*
X105912989Y-70602779D01*
X105756467Y-70686443D01*
X105699853Y-70703616D01*
X105586627Y-70737963D01*
X105520443Y-70744481D01*
X105454260Y-70751000D01*
X105365740Y-70751000D01*
X105299557Y-70744481D01*
X105233373Y-70737963D01*
X105120147Y-70703616D01*
X105063533Y-70686443D01*
X104907011Y-70602779D01*
X104907009Y-70602778D01*
X104871271Y-70573448D01*
X104769814Y-70490186D01*
X104686552Y-70388729D01*
X104657222Y-70352991D01*
X104647652Y-70335087D01*
X104573557Y-70196467D01*
X104556384Y-70139853D01*
X104522037Y-70026627D01*
X104504641Y-69850000D01*
X104522037Y-69673373D01*
X104573557Y-69503534D01*
X104573557Y-69503533D01*
X104657221Y-69347011D01*
X104657222Y-69347009D01*
X104686552Y-69311271D01*
X104769814Y-69209814D01*
X104871271Y-69126552D01*
X104907009Y-69097222D01*
X104924913Y-69087652D01*
X105063533Y-69013557D01*
X105120147Y-68996384D01*
X105233373Y-68962037D01*
X105299557Y-68955519D01*
X105365740Y-68949000D01*
X105454260Y-68949000D01*
X105520443Y-68955519D01*
X105520443Y-68955519D01*
G37*
G36*
X108060443Y-68955519D02*
X108126627Y-68962037D01*
X108239853Y-68996384D01*
X108296467Y-69013557D01*
X108435087Y-69087652D01*
X108452991Y-69097222D01*
X108488729Y-69126552D01*
X108590186Y-69209814D01*
X108673448Y-69311271D01*
X108702778Y-69347009D01*
X108702779Y-69347011D01*
X108786443Y-69503533D01*
X108786443Y-69503534D01*
X108837963Y-69673373D01*
X108855359Y-69850000D01*
X108837963Y-70026627D01*
X108803616Y-70139853D01*
X108786443Y-70196467D01*
X108712348Y-70335087D01*
X108702778Y-70352991D01*
X108673448Y-70388729D01*
X108590186Y-70490186D01*
X108488729Y-70573448D01*
X108452991Y-70602778D01*
X108452989Y-70602779D01*
X108296467Y-70686443D01*
X108239853Y-70703616D01*
X108126627Y-70737963D01*
X108060443Y-70744481D01*
X107994260Y-70751000D01*
X107905740Y-70751000D01*
X107839557Y-70744481D01*
X107773373Y-70737963D01*
X107660147Y-70703616D01*
X107603533Y-70686443D01*
X107447011Y-70602779D01*
X107447009Y-70602778D01*
X107411271Y-70573448D01*
X107309814Y-70490186D01*
X107226552Y-70388729D01*
X107197222Y-70352991D01*
X107187652Y-70335087D01*
X107113557Y-70196467D01*
X107096384Y-70139853D01*
X107062037Y-70026627D01*
X107044641Y-69850000D01*
X107062037Y-69673373D01*
X107113557Y-69503534D01*
X107113557Y-69503533D01*
X107197221Y-69347011D01*
X107197222Y-69347009D01*
X107226552Y-69311271D01*
X107309814Y-69209814D01*
X107411271Y-69126552D01*
X107447009Y-69097222D01*
X107464913Y-69087652D01*
X107603533Y-69013557D01*
X107660147Y-68996384D01*
X107773373Y-68962037D01*
X107839557Y-68955519D01*
X107905740Y-68949000D01*
X107994260Y-68949000D01*
X108060443Y-68955519D01*
X108060443Y-68955519D01*
G37*
G36*
X85835443Y-68955519D02*
X85901627Y-68962037D01*
X86014853Y-68996384D01*
X86071467Y-69013557D01*
X86210087Y-69087652D01*
X86227991Y-69097222D01*
X86263729Y-69126552D01*
X86365186Y-69209814D01*
X86448448Y-69311271D01*
X86477778Y-69347009D01*
X86477779Y-69347011D01*
X86561443Y-69503533D01*
X86561443Y-69503534D01*
X86612963Y-69673373D01*
X86630359Y-69850000D01*
X86612963Y-70026627D01*
X86578616Y-70139853D01*
X86561443Y-70196467D01*
X86487348Y-70335087D01*
X86477778Y-70352991D01*
X86448448Y-70388729D01*
X86365186Y-70490186D01*
X86263729Y-70573448D01*
X86227991Y-70602778D01*
X86227989Y-70602779D01*
X86071467Y-70686443D01*
X86014853Y-70703616D01*
X85901627Y-70737963D01*
X85835443Y-70744481D01*
X85769260Y-70751000D01*
X85680740Y-70751000D01*
X85614557Y-70744481D01*
X85548373Y-70737963D01*
X85435147Y-70703616D01*
X85378533Y-70686443D01*
X85222011Y-70602779D01*
X85222009Y-70602778D01*
X85186271Y-70573448D01*
X85084814Y-70490186D01*
X85001552Y-70388729D01*
X84972222Y-70352991D01*
X84962652Y-70335087D01*
X84888557Y-70196467D01*
X84871384Y-70139853D01*
X84837037Y-70026627D01*
X84819641Y-69850000D01*
X84837037Y-69673373D01*
X84888557Y-69503534D01*
X84888557Y-69503533D01*
X84972221Y-69347011D01*
X84972222Y-69347009D01*
X85001552Y-69311271D01*
X85084814Y-69209814D01*
X85186271Y-69126552D01*
X85222009Y-69097222D01*
X85239913Y-69087652D01*
X85378533Y-69013557D01*
X85435147Y-68996384D01*
X85548373Y-68962037D01*
X85614557Y-68955519D01*
X85680740Y-68949000D01*
X85769260Y-68949000D01*
X85835443Y-68955519D01*
X85835443Y-68955519D01*
G37*
G36*
X83295443Y-68955519D02*
X83361627Y-68962037D01*
X83474853Y-68996384D01*
X83531467Y-69013557D01*
X83670087Y-69087652D01*
X83687991Y-69097222D01*
X83723729Y-69126552D01*
X83825186Y-69209814D01*
X83908448Y-69311271D01*
X83937778Y-69347009D01*
X83937779Y-69347011D01*
X84021443Y-69503533D01*
X84021443Y-69503534D01*
X84072963Y-69673373D01*
X84090359Y-69850000D01*
X84072963Y-70026627D01*
X84038616Y-70139853D01*
X84021443Y-70196467D01*
X83947348Y-70335087D01*
X83937778Y-70352991D01*
X83908448Y-70388729D01*
X83825186Y-70490186D01*
X83723729Y-70573448D01*
X83687991Y-70602778D01*
X83687989Y-70602779D01*
X83531467Y-70686443D01*
X83474853Y-70703616D01*
X83361627Y-70737963D01*
X83295443Y-70744481D01*
X83229260Y-70751000D01*
X83140740Y-70751000D01*
X83074557Y-70744481D01*
X83008373Y-70737963D01*
X82895147Y-70703616D01*
X82838533Y-70686443D01*
X82682011Y-70602779D01*
X82682009Y-70602778D01*
X82646271Y-70573448D01*
X82544814Y-70490186D01*
X82461552Y-70388729D01*
X82432222Y-70352991D01*
X82422652Y-70335087D01*
X82348557Y-70196467D01*
X82331384Y-70139853D01*
X82297037Y-70026627D01*
X82279641Y-69850000D01*
X82297037Y-69673373D01*
X82348557Y-69503534D01*
X82348557Y-69503533D01*
X82432221Y-69347011D01*
X82432222Y-69347009D01*
X82461552Y-69311271D01*
X82544814Y-69209814D01*
X82646271Y-69126552D01*
X82682009Y-69097222D01*
X82699913Y-69087652D01*
X82838533Y-69013557D01*
X82895147Y-68996384D01*
X83008373Y-68962037D01*
X83074557Y-68955519D01*
X83140740Y-68949000D01*
X83229260Y-68949000D01*
X83295443Y-68955519D01*
X83295443Y-68955519D01*
G37*
G36*
X81546000Y-70751000D02*
X79744000Y-70751000D01*
X79744000Y-68949000D01*
X81546000Y-68949000D01*
X81546000Y-70751000D01*
X81546000Y-70751000D01*
G37*
M02*
