G04 #@! TF.GenerationSoftware,KiCad,Pcbnew,(5.0.1)-3*
G04 #@! TF.CreationDate,2019-07-12T23:00:33+01:00*
G04 #@! TF.ProjectId,UsbToSerial,557362546F53657269616C2E6B696361,rev?*
G04 #@! TF.SameCoordinates,Original*
G04 #@! TF.FileFunction,Legend,Top*
G04 #@! TF.FilePolarity,Positive*
%FSLAX46Y46*%
G04 Gerber Fmt 4.6, Leading zero omitted, Abs format (unit mm)*
G04 Created by KiCad (PCBNEW (5.0.1)-3) date 12/07/2019 23:00:33*
%MOMM*%
%LPD*%
G01*
G04 APERTURE LIST*
%ADD10C,0.120000*%
%ADD11C,0.150000*%
G04 APERTURE END LIST*
D10*
G04 #@! TO.C,J1*
X81085000Y-77470000D02*
X81085000Y-78130000D01*
X79355000Y-77470000D02*
X81085000Y-77470000D01*
X76785000Y-85090000D02*
X76995000Y-85090000D01*
X76785000Y-77470000D02*
X76995000Y-77470000D01*
X79355000Y-85090000D02*
X81085000Y-85090000D01*
X81085000Y-85090000D02*
X81085000Y-84440000D01*
X81785000Y-79520000D02*
X81785000Y-79970000D01*
X81785000Y-79520000D02*
X81395000Y-79520000D01*
G04 #@! TO.C,C1*
X85100279Y-84580000D02*
X84774721Y-84580000D01*
X85100279Y-85600000D02*
X84774721Y-85600000D01*
G04 #@! TO.C,C2*
X89215279Y-85600000D02*
X88889721Y-85600000D01*
X89215279Y-84580000D02*
X88889721Y-84580000D01*
G04 #@! TO.C,C3*
X85350000Y-90660000D02*
X85350000Y-89960000D01*
X85350000Y-87140000D02*
X85350000Y-87840000D01*
X82719437Y-87140000D02*
X85350000Y-87140000D01*
X82719437Y-90660000D02*
X85350000Y-90660000D01*
X82019437Y-87840000D02*
X82719437Y-87140000D01*
X82019437Y-89960000D02*
X82719437Y-90660000D01*
X81215000Y-87465000D02*
X81590000Y-87465000D01*
X81402500Y-87277500D02*
X81402500Y-87652500D01*
G04 #@! TO.C,D1*
X86560000Y-76970000D02*
X82675000Y-76970000D01*
X82675000Y-76970000D02*
X82675000Y-79240000D01*
X82675000Y-79240000D02*
X86560000Y-79240000D01*
G04 #@! TO.C,D2*
X112775000Y-75700000D02*
X108890000Y-75700000D01*
X112775000Y-77970000D02*
X112775000Y-75700000D01*
X108890000Y-77970000D02*
X112775000Y-77970000D01*
G04 #@! TO.C,D3*
X108930000Y-81145000D02*
X112815000Y-81145000D01*
X112815000Y-81145000D02*
X112815000Y-78875000D01*
X112815000Y-78875000D02*
X108930000Y-78875000D01*
G04 #@! TO.C,JP1*
X87055000Y-71180000D02*
X87055000Y-68520000D01*
X81915000Y-71180000D02*
X87055000Y-71180000D01*
X81915000Y-68520000D02*
X87055000Y-68520000D01*
X81915000Y-71180000D02*
X81915000Y-68520000D01*
X80645000Y-71180000D02*
X79315000Y-71180000D01*
X79315000Y-71180000D02*
X79315000Y-69850000D01*
G04 #@! TO.C,R1*
X106055279Y-80520000D02*
X105729721Y-80520000D01*
X106055279Y-79500000D02*
X105729721Y-79500000D01*
G04 #@! TO.C,R2*
X106055279Y-76325000D02*
X105729721Y-76325000D01*
X106055279Y-77345000D02*
X105729721Y-77345000D01*
G04 #@! TO.C,R3*
X84139721Y-74420000D02*
X84465279Y-74420000D01*
X84139721Y-75440000D02*
X84465279Y-75440000D01*
D11*
G04 #@! TO.C,U1*
X101845000Y-75865000D02*
X101270000Y-75865000D01*
X101845000Y-81615000D02*
X101195000Y-81615000D01*
X91195000Y-81615000D02*
X91845000Y-81615000D01*
X91195000Y-75865000D02*
X91845000Y-75865000D01*
X101845000Y-75865000D02*
X101845000Y-81615000D01*
X91195000Y-75865000D02*
X91195000Y-81615000D01*
X101270000Y-75865000D02*
X101270000Y-74265000D01*
D10*
G04 #@! TO.C,J2*
X90745000Y-91500000D02*
X90745000Y-90170000D01*
X92075000Y-91500000D02*
X90745000Y-91500000D01*
X93345000Y-91500000D02*
X93345000Y-88840000D01*
X93345000Y-88840000D02*
X108645000Y-88840000D01*
X93345000Y-91500000D02*
X108645000Y-91500000D01*
X108645000Y-91500000D02*
X108645000Y-88840000D01*
G04 #@! TO.C,J3*
X109280000Y-71180000D02*
X109280000Y-68520000D01*
X93980000Y-71180000D02*
X109280000Y-71180000D01*
X93980000Y-68520000D02*
X109280000Y-68520000D01*
X93980000Y-71180000D02*
X93980000Y-68520000D01*
X92710000Y-71180000D02*
X91380000Y-71180000D01*
X91380000Y-71180000D02*
X91380000Y-69850000D01*
G04 #@! TO.C,J1*
D11*
X82127380Y-81613333D02*
X82841666Y-81613333D01*
X82984523Y-81660952D01*
X83079761Y-81756190D01*
X83127380Y-81899047D01*
X83127380Y-81994285D01*
X83127380Y-80613333D02*
X83127380Y-81184761D01*
X83127380Y-80899047D02*
X82127380Y-80899047D01*
X82270238Y-80994285D01*
X82365476Y-81089523D01*
X82413095Y-81184761D01*
G04 #@! TO.C,C1*
X84770833Y-86877142D02*
X84723214Y-86924761D01*
X84580357Y-86972380D01*
X84485119Y-86972380D01*
X84342261Y-86924761D01*
X84247023Y-86829523D01*
X84199404Y-86734285D01*
X84151785Y-86543809D01*
X84151785Y-86400952D01*
X84199404Y-86210476D01*
X84247023Y-86115238D01*
X84342261Y-86020000D01*
X84485119Y-85972380D01*
X84580357Y-85972380D01*
X84723214Y-86020000D01*
X84770833Y-86067619D01*
X85723214Y-86972380D02*
X85151785Y-86972380D01*
X85437500Y-86972380D02*
X85437500Y-85972380D01*
X85342261Y-86115238D01*
X85247023Y-86210476D01*
X85151785Y-86258095D01*
G04 #@! TO.C,C2*
X88885833Y-86877142D02*
X88838214Y-86924761D01*
X88695357Y-86972380D01*
X88600119Y-86972380D01*
X88457261Y-86924761D01*
X88362023Y-86829523D01*
X88314404Y-86734285D01*
X88266785Y-86543809D01*
X88266785Y-86400952D01*
X88314404Y-86210476D01*
X88362023Y-86115238D01*
X88457261Y-86020000D01*
X88600119Y-85972380D01*
X88695357Y-85972380D01*
X88838214Y-86020000D01*
X88885833Y-86067619D01*
X89266785Y-86067619D02*
X89314404Y-86020000D01*
X89409642Y-85972380D01*
X89647738Y-85972380D01*
X89742976Y-86020000D01*
X89790595Y-86067619D01*
X89838214Y-86162857D01*
X89838214Y-86258095D01*
X89790595Y-86400952D01*
X89219166Y-86972380D01*
X89838214Y-86972380D01*
G04 #@! TO.C,C3*
X83423333Y-86557142D02*
X83375714Y-86604761D01*
X83232857Y-86652380D01*
X83137619Y-86652380D01*
X82994761Y-86604761D01*
X82899523Y-86509523D01*
X82851904Y-86414285D01*
X82804285Y-86223809D01*
X82804285Y-86080952D01*
X82851904Y-85890476D01*
X82899523Y-85795238D01*
X82994761Y-85700000D01*
X83137619Y-85652380D01*
X83232857Y-85652380D01*
X83375714Y-85700000D01*
X83423333Y-85747619D01*
X83756666Y-85652380D02*
X84375714Y-85652380D01*
X84042380Y-86033333D01*
X84185238Y-86033333D01*
X84280476Y-86080952D01*
X84328095Y-86128571D01*
X84375714Y-86223809D01*
X84375714Y-86461904D01*
X84328095Y-86557142D01*
X84280476Y-86604761D01*
X84185238Y-86652380D01*
X83899523Y-86652380D01*
X83804285Y-86604761D01*
X83756666Y-86557142D01*
G04 #@! TO.C,D1*
X84221904Y-76737380D02*
X84221904Y-75737380D01*
X84460000Y-75737380D01*
X84602857Y-75785000D01*
X84698095Y-75880238D01*
X84745714Y-75975476D01*
X84793333Y-76165952D01*
X84793333Y-76308809D01*
X84745714Y-76499285D01*
X84698095Y-76594523D01*
X84602857Y-76689761D01*
X84460000Y-76737380D01*
X84221904Y-76737380D01*
X85745714Y-76737380D02*
X85174285Y-76737380D01*
X85460000Y-76737380D02*
X85460000Y-75737380D01*
X85364761Y-75880238D01*
X85269523Y-75975476D01*
X85174285Y-76023095D01*
G04 #@! TO.C,D2*
X109751904Y-79107380D02*
X109751904Y-78107380D01*
X109990000Y-78107380D01*
X110132857Y-78155000D01*
X110228095Y-78250238D01*
X110275714Y-78345476D01*
X110323333Y-78535952D01*
X110323333Y-78678809D01*
X110275714Y-78869285D01*
X110228095Y-78964523D01*
X110132857Y-79059761D01*
X109990000Y-79107380D01*
X109751904Y-79107380D01*
X110704285Y-78202619D02*
X110751904Y-78155000D01*
X110847142Y-78107380D01*
X111085238Y-78107380D01*
X111180476Y-78155000D01*
X111228095Y-78202619D01*
X111275714Y-78297857D01*
X111275714Y-78393095D01*
X111228095Y-78535952D01*
X110656666Y-79107380D01*
X111275714Y-79107380D01*
G04 #@! TO.C,D3*
X109791904Y-82282380D02*
X109791904Y-81282380D01*
X110030000Y-81282380D01*
X110172857Y-81330000D01*
X110268095Y-81425238D01*
X110315714Y-81520476D01*
X110363333Y-81710952D01*
X110363333Y-81853809D01*
X110315714Y-82044285D01*
X110268095Y-82139523D01*
X110172857Y-82234761D01*
X110030000Y-82282380D01*
X109791904Y-82282380D01*
X110696666Y-81282380D02*
X111315714Y-81282380D01*
X110982380Y-81663333D01*
X111125238Y-81663333D01*
X111220476Y-81710952D01*
X111268095Y-81758571D01*
X111315714Y-81853809D01*
X111315714Y-82091904D01*
X111268095Y-82187142D01*
X111220476Y-82234761D01*
X111125238Y-82282380D01*
X110839523Y-82282380D01*
X110744285Y-82234761D01*
X110696666Y-82187142D01*
G04 #@! TO.C,JP1*
X77767380Y-70683333D02*
X78481666Y-70683333D01*
X78624523Y-70730952D01*
X78719761Y-70826190D01*
X78767380Y-70969047D01*
X78767380Y-71064285D01*
X78767380Y-70207142D02*
X77767380Y-70207142D01*
X77767380Y-69826190D01*
X77815000Y-69730952D01*
X77862619Y-69683333D01*
X77957857Y-69635714D01*
X78100714Y-69635714D01*
X78195952Y-69683333D01*
X78243571Y-69730952D01*
X78291190Y-69826190D01*
X78291190Y-70207142D01*
X78767380Y-68683333D02*
X78767380Y-69254761D01*
X78767380Y-68969047D02*
X77767380Y-68969047D01*
X77910238Y-69064285D01*
X78005476Y-69159523D01*
X78053095Y-69254761D01*
G04 #@! TO.C,R1*
X105725833Y-81892380D02*
X105392500Y-81416190D01*
X105154404Y-81892380D02*
X105154404Y-80892380D01*
X105535357Y-80892380D01*
X105630595Y-80940000D01*
X105678214Y-80987619D01*
X105725833Y-81082857D01*
X105725833Y-81225714D01*
X105678214Y-81320952D01*
X105630595Y-81368571D01*
X105535357Y-81416190D01*
X105154404Y-81416190D01*
X106678214Y-81892380D02*
X106106785Y-81892380D01*
X106392500Y-81892380D02*
X106392500Y-80892380D01*
X106297261Y-81035238D01*
X106202023Y-81130476D01*
X106106785Y-81178095D01*
G04 #@! TO.C,R2*
X105725833Y-78717380D02*
X105392500Y-78241190D01*
X105154404Y-78717380D02*
X105154404Y-77717380D01*
X105535357Y-77717380D01*
X105630595Y-77765000D01*
X105678214Y-77812619D01*
X105725833Y-77907857D01*
X105725833Y-78050714D01*
X105678214Y-78145952D01*
X105630595Y-78193571D01*
X105535357Y-78241190D01*
X105154404Y-78241190D01*
X106106785Y-77812619D02*
X106154404Y-77765000D01*
X106249642Y-77717380D01*
X106487738Y-77717380D01*
X106582976Y-77765000D01*
X106630595Y-77812619D01*
X106678214Y-77907857D01*
X106678214Y-78003095D01*
X106630595Y-78145952D01*
X106059166Y-78717380D01*
X106678214Y-78717380D01*
G04 #@! TO.C,R3*
X84135833Y-73952380D02*
X83802500Y-73476190D01*
X83564404Y-73952380D02*
X83564404Y-72952380D01*
X83945357Y-72952380D01*
X84040595Y-73000000D01*
X84088214Y-73047619D01*
X84135833Y-73142857D01*
X84135833Y-73285714D01*
X84088214Y-73380952D01*
X84040595Y-73428571D01*
X83945357Y-73476190D01*
X83564404Y-73476190D01*
X84469166Y-72952380D02*
X85088214Y-72952380D01*
X84754880Y-73333333D01*
X84897738Y-73333333D01*
X84992976Y-73380952D01*
X85040595Y-73428571D01*
X85088214Y-73523809D01*
X85088214Y-73761904D01*
X85040595Y-73857142D01*
X84992976Y-73904761D01*
X84897738Y-73952380D01*
X84612023Y-73952380D01*
X84516785Y-73904761D01*
X84469166Y-73857142D01*
G04 #@! TO.C,U1*
X102222380Y-79501904D02*
X103031904Y-79501904D01*
X103127142Y-79454285D01*
X103174761Y-79406666D01*
X103222380Y-79311428D01*
X103222380Y-79120952D01*
X103174761Y-79025714D01*
X103127142Y-78978095D01*
X103031904Y-78930476D01*
X102222380Y-78930476D01*
X103222380Y-77930476D02*
X103222380Y-78501904D01*
X103222380Y-78216190D02*
X102222380Y-78216190D01*
X102365238Y-78311428D01*
X102460476Y-78406666D01*
X102508095Y-78501904D01*
G04 #@! TO.C,J2*
X89197380Y-90503333D02*
X89911666Y-90503333D01*
X90054523Y-90550952D01*
X90149761Y-90646190D01*
X90197380Y-90789047D01*
X90197380Y-90884285D01*
X89292619Y-90074761D02*
X89245000Y-90027142D01*
X89197380Y-89931904D01*
X89197380Y-89693809D01*
X89245000Y-89598571D01*
X89292619Y-89550952D01*
X89387857Y-89503333D01*
X89483095Y-89503333D01*
X89625952Y-89550952D01*
X90197380Y-90122380D01*
X90197380Y-89503333D01*
G04 #@! TO.C,J3*
X89832380Y-70183333D02*
X90546666Y-70183333D01*
X90689523Y-70230952D01*
X90784761Y-70326190D01*
X90832380Y-70469047D01*
X90832380Y-70564285D01*
X89832380Y-69802380D02*
X89832380Y-69183333D01*
X90213333Y-69516666D01*
X90213333Y-69373809D01*
X90260952Y-69278571D01*
X90308571Y-69230952D01*
X90403809Y-69183333D01*
X90641904Y-69183333D01*
X90737142Y-69230952D01*
X90784761Y-69278571D01*
X90832380Y-69373809D01*
X90832380Y-69659523D01*
X90784761Y-69754761D01*
X90737142Y-69802380D01*
G04 #@! TD*
M02*
