G04 #@! TF.GenerationSoftware,KiCad,Pcbnew,(5.0.1)-3*
G04 #@! TF.CreationDate,2019-07-27T12:32:00+01:00*
G04 #@! TF.ProjectId,UsbToSerial,557362546F53657269616C2E6B696361,rev?*
G04 #@! TF.SameCoordinates,Original*
G04 #@! TF.FileFunction,Copper,L1,Top,Signal*
G04 #@! TF.FilePolarity,Positive*
%FSLAX46Y46*%
G04 Gerber Fmt 4.6, Leading zero omitted, Abs format (unit mm)*
G04 Created by KiCad (PCBNEW (5.0.1)-3) date 27/07/2019 12:32:00*
%MOMM*%
%LPD*%
G01*
G04 APERTURE LIST*
G04 #@! TA.AperFunction,SMDPad,CuDef*
%ADD10R,1.400000X0.400000*%
G04 #@! TD*
G04 #@! TA.AperFunction,ComponentPad*
%ADD11O,1.900000X1.050000*%
G04 #@! TD*
G04 #@! TA.AperFunction,Conductor*
%ADD12C,0.100000*%
G04 #@! TD*
G04 #@! TA.AperFunction,SMDPad,CuDef*
%ADD13C,0.875000*%
G04 #@! TD*
G04 #@! TA.AperFunction,SMDPad,CuDef*
%ADD14R,2.200000X1.600000*%
G04 #@! TD*
G04 #@! TA.AperFunction,SMDPad,CuDef*
%ADD15C,1.250000*%
G04 #@! TD*
G04 #@! TA.AperFunction,ComponentPad*
%ADD16R,1.700000X1.700000*%
G04 #@! TD*
G04 #@! TA.AperFunction,ComponentPad*
%ADD17O,1.700000X1.700000*%
G04 #@! TD*
G04 #@! TA.AperFunction,SMDPad,CuDef*
%ADD18R,0.450000X1.750000*%
G04 #@! TD*
G04 #@! TA.AperFunction,Conductor*
%ADD19C,0.250000*%
G04 #@! TD*
G04 APERTURE END LIST*
D10*
G04 #@! TO.P,J1,2*
G04 #@! TO.N,Net-(J1-Pad2)*
X82095000Y-79360000D03*
G04 #@! TO.P,J1,1*
G04 #@! TO.N,+5V*
X82095000Y-78710000D03*
G04 #@! TO.P,J1,5*
G04 #@! TO.N,GNDREF*
X82095000Y-81310000D03*
G04 #@! TO.P,J1,3*
G04 #@! TO.N,Net-(J1-Pad3)*
X82095000Y-80010000D03*
D11*
G04 #@! TO.P,J1,6*
G04 #@! TO.N,Net-(J1-Pad6)*
X79445000Y-76435000D03*
X79445000Y-83585000D03*
G04 #@! TD*
D12*
G04 #@! TO.N,GNDREF*
G04 #@! TO.C,C1*
G36*
X88505191Y-83346053D02*
X88526426Y-83349203D01*
X88547250Y-83354419D01*
X88567462Y-83361651D01*
X88586868Y-83370830D01*
X88605281Y-83381866D01*
X88622524Y-83394654D01*
X88638430Y-83409070D01*
X88652846Y-83424976D01*
X88665634Y-83442219D01*
X88676670Y-83460632D01*
X88685849Y-83480038D01*
X88693081Y-83500250D01*
X88698297Y-83521074D01*
X88701447Y-83542309D01*
X88702500Y-83563750D01*
X88702500Y-84076250D01*
X88701447Y-84097691D01*
X88698297Y-84118926D01*
X88693081Y-84139750D01*
X88685849Y-84159962D01*
X88676670Y-84179368D01*
X88665634Y-84197781D01*
X88652846Y-84215024D01*
X88638430Y-84230930D01*
X88622524Y-84245346D01*
X88605281Y-84258134D01*
X88586868Y-84269170D01*
X88567462Y-84278349D01*
X88547250Y-84285581D01*
X88526426Y-84290797D01*
X88505191Y-84293947D01*
X88483750Y-84295000D01*
X88046250Y-84295000D01*
X88024809Y-84293947D01*
X88003574Y-84290797D01*
X87982750Y-84285581D01*
X87962538Y-84278349D01*
X87943132Y-84269170D01*
X87924719Y-84258134D01*
X87907476Y-84245346D01*
X87891570Y-84230930D01*
X87877154Y-84215024D01*
X87864366Y-84197781D01*
X87853330Y-84179368D01*
X87844151Y-84159962D01*
X87836919Y-84139750D01*
X87831703Y-84118926D01*
X87828553Y-84097691D01*
X87827500Y-84076250D01*
X87827500Y-83563750D01*
X87828553Y-83542309D01*
X87831703Y-83521074D01*
X87836919Y-83500250D01*
X87844151Y-83480038D01*
X87853330Y-83460632D01*
X87864366Y-83442219D01*
X87877154Y-83424976D01*
X87891570Y-83409070D01*
X87907476Y-83394654D01*
X87924719Y-83381866D01*
X87943132Y-83370830D01*
X87962538Y-83361651D01*
X87982750Y-83354419D01*
X88003574Y-83349203D01*
X88024809Y-83346053D01*
X88046250Y-83345000D01*
X88483750Y-83345000D01*
X88505191Y-83346053D01*
X88505191Y-83346053D01*
G37*
D13*
G04 #@! TD*
G04 #@! TO.P,C1,2*
G04 #@! TO.N,GNDREF*
X88265000Y-83820000D03*
D12*
G04 #@! TO.N,+3V3*
G04 #@! TO.C,C1*
G36*
X90080191Y-83346053D02*
X90101426Y-83349203D01*
X90122250Y-83354419D01*
X90142462Y-83361651D01*
X90161868Y-83370830D01*
X90180281Y-83381866D01*
X90197524Y-83394654D01*
X90213430Y-83409070D01*
X90227846Y-83424976D01*
X90240634Y-83442219D01*
X90251670Y-83460632D01*
X90260849Y-83480038D01*
X90268081Y-83500250D01*
X90273297Y-83521074D01*
X90276447Y-83542309D01*
X90277500Y-83563750D01*
X90277500Y-84076250D01*
X90276447Y-84097691D01*
X90273297Y-84118926D01*
X90268081Y-84139750D01*
X90260849Y-84159962D01*
X90251670Y-84179368D01*
X90240634Y-84197781D01*
X90227846Y-84215024D01*
X90213430Y-84230930D01*
X90197524Y-84245346D01*
X90180281Y-84258134D01*
X90161868Y-84269170D01*
X90142462Y-84278349D01*
X90122250Y-84285581D01*
X90101426Y-84290797D01*
X90080191Y-84293947D01*
X90058750Y-84295000D01*
X89621250Y-84295000D01*
X89599809Y-84293947D01*
X89578574Y-84290797D01*
X89557750Y-84285581D01*
X89537538Y-84278349D01*
X89518132Y-84269170D01*
X89499719Y-84258134D01*
X89482476Y-84245346D01*
X89466570Y-84230930D01*
X89452154Y-84215024D01*
X89439366Y-84197781D01*
X89428330Y-84179368D01*
X89419151Y-84159962D01*
X89411919Y-84139750D01*
X89406703Y-84118926D01*
X89403553Y-84097691D01*
X89402500Y-84076250D01*
X89402500Y-83563750D01*
X89403553Y-83542309D01*
X89406703Y-83521074D01*
X89411919Y-83500250D01*
X89419151Y-83480038D01*
X89428330Y-83460632D01*
X89439366Y-83442219D01*
X89452154Y-83424976D01*
X89466570Y-83409070D01*
X89482476Y-83394654D01*
X89499719Y-83381866D01*
X89518132Y-83370830D01*
X89537538Y-83361651D01*
X89557750Y-83354419D01*
X89578574Y-83349203D01*
X89599809Y-83346053D01*
X89621250Y-83345000D01*
X90058750Y-83345000D01*
X90080191Y-83346053D01*
X90080191Y-83346053D01*
G37*
D13*
G04 #@! TD*
G04 #@! TO.P,C1,1*
G04 #@! TO.N,+3V3*
X89840000Y-83820000D03*
D12*
G04 #@! TO.N,+5V*
G04 #@! TO.C,C2*
G36*
X84695191Y-83346053D02*
X84716426Y-83349203D01*
X84737250Y-83354419D01*
X84757462Y-83361651D01*
X84776868Y-83370830D01*
X84795281Y-83381866D01*
X84812524Y-83394654D01*
X84828430Y-83409070D01*
X84842846Y-83424976D01*
X84855634Y-83442219D01*
X84866670Y-83460632D01*
X84875849Y-83480038D01*
X84883081Y-83500250D01*
X84888297Y-83521074D01*
X84891447Y-83542309D01*
X84892500Y-83563750D01*
X84892500Y-84076250D01*
X84891447Y-84097691D01*
X84888297Y-84118926D01*
X84883081Y-84139750D01*
X84875849Y-84159962D01*
X84866670Y-84179368D01*
X84855634Y-84197781D01*
X84842846Y-84215024D01*
X84828430Y-84230930D01*
X84812524Y-84245346D01*
X84795281Y-84258134D01*
X84776868Y-84269170D01*
X84757462Y-84278349D01*
X84737250Y-84285581D01*
X84716426Y-84290797D01*
X84695191Y-84293947D01*
X84673750Y-84295000D01*
X84236250Y-84295000D01*
X84214809Y-84293947D01*
X84193574Y-84290797D01*
X84172750Y-84285581D01*
X84152538Y-84278349D01*
X84133132Y-84269170D01*
X84114719Y-84258134D01*
X84097476Y-84245346D01*
X84081570Y-84230930D01*
X84067154Y-84215024D01*
X84054366Y-84197781D01*
X84043330Y-84179368D01*
X84034151Y-84159962D01*
X84026919Y-84139750D01*
X84021703Y-84118926D01*
X84018553Y-84097691D01*
X84017500Y-84076250D01*
X84017500Y-83563750D01*
X84018553Y-83542309D01*
X84021703Y-83521074D01*
X84026919Y-83500250D01*
X84034151Y-83480038D01*
X84043330Y-83460632D01*
X84054366Y-83442219D01*
X84067154Y-83424976D01*
X84081570Y-83409070D01*
X84097476Y-83394654D01*
X84114719Y-83381866D01*
X84133132Y-83370830D01*
X84152538Y-83361651D01*
X84172750Y-83354419D01*
X84193574Y-83349203D01*
X84214809Y-83346053D01*
X84236250Y-83345000D01*
X84673750Y-83345000D01*
X84695191Y-83346053D01*
X84695191Y-83346053D01*
G37*
D13*
G04 #@! TD*
G04 #@! TO.P,C2,1*
G04 #@! TO.N,+5V*
X84455000Y-83820000D03*
D12*
G04 #@! TO.N,GNDREF*
G04 #@! TO.C,C2*
G36*
X86270191Y-83346053D02*
X86291426Y-83349203D01*
X86312250Y-83354419D01*
X86332462Y-83361651D01*
X86351868Y-83370830D01*
X86370281Y-83381866D01*
X86387524Y-83394654D01*
X86403430Y-83409070D01*
X86417846Y-83424976D01*
X86430634Y-83442219D01*
X86441670Y-83460632D01*
X86450849Y-83480038D01*
X86458081Y-83500250D01*
X86463297Y-83521074D01*
X86466447Y-83542309D01*
X86467500Y-83563750D01*
X86467500Y-84076250D01*
X86466447Y-84097691D01*
X86463297Y-84118926D01*
X86458081Y-84139750D01*
X86450849Y-84159962D01*
X86441670Y-84179368D01*
X86430634Y-84197781D01*
X86417846Y-84215024D01*
X86403430Y-84230930D01*
X86387524Y-84245346D01*
X86370281Y-84258134D01*
X86351868Y-84269170D01*
X86332462Y-84278349D01*
X86312250Y-84285581D01*
X86291426Y-84290797D01*
X86270191Y-84293947D01*
X86248750Y-84295000D01*
X85811250Y-84295000D01*
X85789809Y-84293947D01*
X85768574Y-84290797D01*
X85747750Y-84285581D01*
X85727538Y-84278349D01*
X85708132Y-84269170D01*
X85689719Y-84258134D01*
X85672476Y-84245346D01*
X85656570Y-84230930D01*
X85642154Y-84215024D01*
X85629366Y-84197781D01*
X85618330Y-84179368D01*
X85609151Y-84159962D01*
X85601919Y-84139750D01*
X85596703Y-84118926D01*
X85593553Y-84097691D01*
X85592500Y-84076250D01*
X85592500Y-83563750D01*
X85593553Y-83542309D01*
X85596703Y-83521074D01*
X85601919Y-83500250D01*
X85609151Y-83480038D01*
X85618330Y-83460632D01*
X85629366Y-83442219D01*
X85642154Y-83424976D01*
X85656570Y-83409070D01*
X85672476Y-83394654D01*
X85689719Y-83381866D01*
X85708132Y-83370830D01*
X85727538Y-83361651D01*
X85747750Y-83354419D01*
X85768574Y-83349203D01*
X85789809Y-83346053D01*
X85811250Y-83345000D01*
X86248750Y-83345000D01*
X86270191Y-83346053D01*
X86270191Y-83346053D01*
G37*
D13*
G04 #@! TD*
G04 #@! TO.P,C2,2*
G04 #@! TO.N,GNDREF*
X86030000Y-83820000D03*
D14*
G04 #@! TO.P,C3,1*
G04 #@! TO.N,+5V*
X85265000Y-87630000D03*
G04 #@! TO.P,C3,2*
G04 #@! TO.N,GNDREF*
X88265000Y-87630000D03*
G04 #@! TD*
D12*
G04 #@! TO.N,GNDREF*
G04 #@! TO.C,D1*
G36*
X86374504Y-80151204D02*
X86398773Y-80154804D01*
X86422571Y-80160765D01*
X86445671Y-80169030D01*
X86467849Y-80179520D01*
X86488893Y-80192133D01*
X86508598Y-80206747D01*
X86526777Y-80223223D01*
X86543253Y-80241402D01*
X86557867Y-80261107D01*
X86570480Y-80282151D01*
X86580970Y-80304329D01*
X86589235Y-80327429D01*
X86595196Y-80351227D01*
X86598796Y-80375496D01*
X86600000Y-80400000D01*
X86600000Y-81150000D01*
X86598796Y-81174504D01*
X86595196Y-81198773D01*
X86589235Y-81222571D01*
X86580970Y-81245671D01*
X86570480Y-81267849D01*
X86557867Y-81288893D01*
X86543253Y-81308598D01*
X86526777Y-81326777D01*
X86508598Y-81343253D01*
X86488893Y-81357867D01*
X86467849Y-81370480D01*
X86445671Y-81380970D01*
X86422571Y-81389235D01*
X86398773Y-81395196D01*
X86374504Y-81398796D01*
X86350000Y-81400000D01*
X85100000Y-81400000D01*
X85075496Y-81398796D01*
X85051227Y-81395196D01*
X85027429Y-81389235D01*
X85004329Y-81380970D01*
X84982151Y-81370480D01*
X84961107Y-81357867D01*
X84941402Y-81343253D01*
X84923223Y-81326777D01*
X84906747Y-81308598D01*
X84892133Y-81288893D01*
X84879520Y-81267849D01*
X84869030Y-81245671D01*
X84860765Y-81222571D01*
X84854804Y-81198773D01*
X84851204Y-81174504D01*
X84850000Y-81150000D01*
X84850000Y-80400000D01*
X84851204Y-80375496D01*
X84854804Y-80351227D01*
X84860765Y-80327429D01*
X84869030Y-80304329D01*
X84879520Y-80282151D01*
X84892133Y-80261107D01*
X84906747Y-80241402D01*
X84923223Y-80223223D01*
X84941402Y-80206747D01*
X84961107Y-80192133D01*
X84982151Y-80179520D01*
X85004329Y-80169030D01*
X85027429Y-80160765D01*
X85051227Y-80154804D01*
X85075496Y-80151204D01*
X85100000Y-80150000D01*
X86350000Y-80150000D01*
X86374504Y-80151204D01*
X86374504Y-80151204D01*
G37*
D15*
G04 #@! TD*
G04 #@! TO.P,D1,1*
G04 #@! TO.N,GNDREF*
X85725000Y-80775000D03*
D12*
G04 #@! TO.N,Net-(D1-Pad2)*
G04 #@! TO.C,D1*
G36*
X86374504Y-77351204D02*
X86398773Y-77354804D01*
X86422571Y-77360765D01*
X86445671Y-77369030D01*
X86467849Y-77379520D01*
X86488893Y-77392133D01*
X86508598Y-77406747D01*
X86526777Y-77423223D01*
X86543253Y-77441402D01*
X86557867Y-77461107D01*
X86570480Y-77482151D01*
X86580970Y-77504329D01*
X86589235Y-77527429D01*
X86595196Y-77551227D01*
X86598796Y-77575496D01*
X86600000Y-77600000D01*
X86600000Y-78350000D01*
X86598796Y-78374504D01*
X86595196Y-78398773D01*
X86589235Y-78422571D01*
X86580970Y-78445671D01*
X86570480Y-78467849D01*
X86557867Y-78488893D01*
X86543253Y-78508598D01*
X86526777Y-78526777D01*
X86508598Y-78543253D01*
X86488893Y-78557867D01*
X86467849Y-78570480D01*
X86445671Y-78580970D01*
X86422571Y-78589235D01*
X86398773Y-78595196D01*
X86374504Y-78598796D01*
X86350000Y-78600000D01*
X85100000Y-78600000D01*
X85075496Y-78598796D01*
X85051227Y-78595196D01*
X85027429Y-78589235D01*
X85004329Y-78580970D01*
X84982151Y-78570480D01*
X84961107Y-78557867D01*
X84941402Y-78543253D01*
X84923223Y-78526777D01*
X84906747Y-78508598D01*
X84892133Y-78488893D01*
X84879520Y-78467849D01*
X84869030Y-78445671D01*
X84860765Y-78422571D01*
X84854804Y-78398773D01*
X84851204Y-78374504D01*
X84850000Y-78350000D01*
X84850000Y-77600000D01*
X84851204Y-77575496D01*
X84854804Y-77551227D01*
X84860765Y-77527429D01*
X84869030Y-77504329D01*
X84879520Y-77482151D01*
X84892133Y-77461107D01*
X84906747Y-77441402D01*
X84923223Y-77423223D01*
X84941402Y-77406747D01*
X84961107Y-77392133D01*
X84982151Y-77379520D01*
X85004329Y-77369030D01*
X85027429Y-77360765D01*
X85051227Y-77354804D01*
X85075496Y-77351204D01*
X85100000Y-77350000D01*
X86350000Y-77350000D01*
X86374504Y-77351204D01*
X86374504Y-77351204D01*
G37*
D15*
G04 #@! TD*
G04 #@! TO.P,D1,2*
G04 #@! TO.N,Net-(D1-Pad2)*
X85725000Y-77975000D03*
D12*
G04 #@! TO.N,Net-(D2-Pad2)*
G04 #@! TO.C,D2*
G36*
X107610504Y-77647197D02*
X107634773Y-77650797D01*
X107658571Y-77656758D01*
X107681671Y-77665023D01*
X107703849Y-77675513D01*
X107724893Y-77688126D01*
X107744598Y-77702740D01*
X107762777Y-77719216D01*
X107779253Y-77737395D01*
X107793867Y-77757100D01*
X107806480Y-77778144D01*
X107816970Y-77800322D01*
X107825235Y-77823422D01*
X107831196Y-77847220D01*
X107834796Y-77871489D01*
X107836000Y-77895993D01*
X107836000Y-79145993D01*
X107834796Y-79170497D01*
X107831196Y-79194766D01*
X107825235Y-79218564D01*
X107816970Y-79241664D01*
X107806480Y-79263842D01*
X107793867Y-79284886D01*
X107779253Y-79304591D01*
X107762777Y-79322770D01*
X107744598Y-79339246D01*
X107724893Y-79353860D01*
X107703849Y-79366473D01*
X107681671Y-79376963D01*
X107658571Y-79385228D01*
X107634773Y-79391189D01*
X107610504Y-79394789D01*
X107586000Y-79395993D01*
X106836000Y-79395993D01*
X106811496Y-79394789D01*
X106787227Y-79391189D01*
X106763429Y-79385228D01*
X106740329Y-79376963D01*
X106718151Y-79366473D01*
X106697107Y-79353860D01*
X106677402Y-79339246D01*
X106659223Y-79322770D01*
X106642747Y-79304591D01*
X106628133Y-79284886D01*
X106615520Y-79263842D01*
X106605030Y-79241664D01*
X106596765Y-79218564D01*
X106590804Y-79194766D01*
X106587204Y-79170497D01*
X106586000Y-79145993D01*
X106586000Y-77895993D01*
X106587204Y-77871489D01*
X106590804Y-77847220D01*
X106596765Y-77823422D01*
X106605030Y-77800322D01*
X106615520Y-77778144D01*
X106628133Y-77757100D01*
X106642747Y-77737395D01*
X106659223Y-77719216D01*
X106677402Y-77702740D01*
X106697107Y-77688126D01*
X106718151Y-77675513D01*
X106740329Y-77665023D01*
X106763429Y-77656758D01*
X106787227Y-77650797D01*
X106811496Y-77647197D01*
X106836000Y-77645993D01*
X107586000Y-77645993D01*
X107610504Y-77647197D01*
X107610504Y-77647197D01*
G37*
D15*
G04 #@! TD*
G04 #@! TO.P,D2,2*
G04 #@! TO.N,Net-(D2-Pad2)*
X107211000Y-78520993D03*
D12*
G04 #@! TO.N,Net-(D2-Pad1)*
G04 #@! TO.C,D2*
G36*
X110410504Y-77647197D02*
X110434773Y-77650797D01*
X110458571Y-77656758D01*
X110481671Y-77665023D01*
X110503849Y-77675513D01*
X110524893Y-77688126D01*
X110544598Y-77702740D01*
X110562777Y-77719216D01*
X110579253Y-77737395D01*
X110593867Y-77757100D01*
X110606480Y-77778144D01*
X110616970Y-77800322D01*
X110625235Y-77823422D01*
X110631196Y-77847220D01*
X110634796Y-77871489D01*
X110636000Y-77895993D01*
X110636000Y-79145993D01*
X110634796Y-79170497D01*
X110631196Y-79194766D01*
X110625235Y-79218564D01*
X110616970Y-79241664D01*
X110606480Y-79263842D01*
X110593867Y-79284886D01*
X110579253Y-79304591D01*
X110562777Y-79322770D01*
X110544598Y-79339246D01*
X110524893Y-79353860D01*
X110503849Y-79366473D01*
X110481671Y-79376963D01*
X110458571Y-79385228D01*
X110434773Y-79391189D01*
X110410504Y-79394789D01*
X110386000Y-79395993D01*
X109636000Y-79395993D01*
X109611496Y-79394789D01*
X109587227Y-79391189D01*
X109563429Y-79385228D01*
X109540329Y-79376963D01*
X109518151Y-79366473D01*
X109497107Y-79353860D01*
X109477402Y-79339246D01*
X109459223Y-79322770D01*
X109442747Y-79304591D01*
X109428133Y-79284886D01*
X109415520Y-79263842D01*
X109405030Y-79241664D01*
X109396765Y-79218564D01*
X109390804Y-79194766D01*
X109387204Y-79170497D01*
X109386000Y-79145993D01*
X109386000Y-77895993D01*
X109387204Y-77871489D01*
X109390804Y-77847220D01*
X109396765Y-77823422D01*
X109405030Y-77800322D01*
X109415520Y-77778144D01*
X109428133Y-77757100D01*
X109442747Y-77737395D01*
X109459223Y-77719216D01*
X109477402Y-77702740D01*
X109497107Y-77688126D01*
X109518151Y-77675513D01*
X109540329Y-77665023D01*
X109563429Y-77656758D01*
X109587227Y-77650797D01*
X109611496Y-77647197D01*
X109636000Y-77645993D01*
X110386000Y-77645993D01*
X110410504Y-77647197D01*
X110410504Y-77647197D01*
G37*
D15*
G04 #@! TD*
G04 #@! TO.P,D2,1*
G04 #@! TO.N,Net-(D2-Pad1)*
X110011000Y-78520993D03*
D12*
G04 #@! TO.N,Net-(D3-Pad1)*
G04 #@! TO.C,D3*
G36*
X110410504Y-80069690D02*
X110434773Y-80073290D01*
X110458571Y-80079251D01*
X110481671Y-80087516D01*
X110503849Y-80098006D01*
X110524893Y-80110619D01*
X110544598Y-80125233D01*
X110562777Y-80141709D01*
X110579253Y-80159888D01*
X110593867Y-80179593D01*
X110606480Y-80200637D01*
X110616970Y-80222815D01*
X110625235Y-80245915D01*
X110631196Y-80269713D01*
X110634796Y-80293982D01*
X110636000Y-80318486D01*
X110636000Y-81568486D01*
X110634796Y-81592990D01*
X110631196Y-81617259D01*
X110625235Y-81641057D01*
X110616970Y-81664157D01*
X110606480Y-81686335D01*
X110593867Y-81707379D01*
X110579253Y-81727084D01*
X110562777Y-81745263D01*
X110544598Y-81761739D01*
X110524893Y-81776353D01*
X110503849Y-81788966D01*
X110481671Y-81799456D01*
X110458571Y-81807721D01*
X110434773Y-81813682D01*
X110410504Y-81817282D01*
X110386000Y-81818486D01*
X109636000Y-81818486D01*
X109611496Y-81817282D01*
X109587227Y-81813682D01*
X109563429Y-81807721D01*
X109540329Y-81799456D01*
X109518151Y-81788966D01*
X109497107Y-81776353D01*
X109477402Y-81761739D01*
X109459223Y-81745263D01*
X109442747Y-81727084D01*
X109428133Y-81707379D01*
X109415520Y-81686335D01*
X109405030Y-81664157D01*
X109396765Y-81641057D01*
X109390804Y-81617259D01*
X109387204Y-81592990D01*
X109386000Y-81568486D01*
X109386000Y-80318486D01*
X109387204Y-80293982D01*
X109390804Y-80269713D01*
X109396765Y-80245915D01*
X109405030Y-80222815D01*
X109415520Y-80200637D01*
X109428133Y-80179593D01*
X109442747Y-80159888D01*
X109459223Y-80141709D01*
X109477402Y-80125233D01*
X109497107Y-80110619D01*
X109518151Y-80098006D01*
X109540329Y-80087516D01*
X109563429Y-80079251D01*
X109587227Y-80073290D01*
X109611496Y-80069690D01*
X109636000Y-80068486D01*
X110386000Y-80068486D01*
X110410504Y-80069690D01*
X110410504Y-80069690D01*
G37*
D15*
G04 #@! TD*
G04 #@! TO.P,D3,1*
G04 #@! TO.N,Net-(D3-Pad1)*
X110011000Y-80943486D03*
D12*
G04 #@! TO.N,Net-(D3-Pad2)*
G04 #@! TO.C,D3*
G36*
X107610504Y-80069690D02*
X107634773Y-80073290D01*
X107658571Y-80079251D01*
X107681671Y-80087516D01*
X107703849Y-80098006D01*
X107724893Y-80110619D01*
X107744598Y-80125233D01*
X107762777Y-80141709D01*
X107779253Y-80159888D01*
X107793867Y-80179593D01*
X107806480Y-80200637D01*
X107816970Y-80222815D01*
X107825235Y-80245915D01*
X107831196Y-80269713D01*
X107834796Y-80293982D01*
X107836000Y-80318486D01*
X107836000Y-81568486D01*
X107834796Y-81592990D01*
X107831196Y-81617259D01*
X107825235Y-81641057D01*
X107816970Y-81664157D01*
X107806480Y-81686335D01*
X107793867Y-81707379D01*
X107779253Y-81727084D01*
X107762777Y-81745263D01*
X107744598Y-81761739D01*
X107724893Y-81776353D01*
X107703849Y-81788966D01*
X107681671Y-81799456D01*
X107658571Y-81807721D01*
X107634773Y-81813682D01*
X107610504Y-81817282D01*
X107586000Y-81818486D01*
X106836000Y-81818486D01*
X106811496Y-81817282D01*
X106787227Y-81813682D01*
X106763429Y-81807721D01*
X106740329Y-81799456D01*
X106718151Y-81788966D01*
X106697107Y-81776353D01*
X106677402Y-81761739D01*
X106659223Y-81745263D01*
X106642747Y-81727084D01*
X106628133Y-81707379D01*
X106615520Y-81686335D01*
X106605030Y-81664157D01*
X106596765Y-81641057D01*
X106590804Y-81617259D01*
X106587204Y-81592990D01*
X106586000Y-81568486D01*
X106586000Y-80318486D01*
X106587204Y-80293982D01*
X106590804Y-80269713D01*
X106596765Y-80245915D01*
X106605030Y-80222815D01*
X106615520Y-80200637D01*
X106628133Y-80179593D01*
X106642747Y-80159888D01*
X106659223Y-80141709D01*
X106677402Y-80125233D01*
X106697107Y-80110619D01*
X106718151Y-80098006D01*
X106740329Y-80087516D01*
X106763429Y-80079251D01*
X106787227Y-80073290D01*
X106811496Y-80069690D01*
X106836000Y-80068486D01*
X107586000Y-80068486D01*
X107610504Y-80069690D01*
X107610504Y-80069690D01*
G37*
D15*
G04 #@! TD*
G04 #@! TO.P,D3,2*
G04 #@! TO.N,Net-(D3-Pad2)*
X107211000Y-80943486D03*
D16*
G04 #@! TO.P,JP1,1*
G04 #@! TO.N,+5V*
X83185000Y-72390000D03*
D17*
G04 #@! TO.P,JP1,2*
G04 #@! TO.N,PWR*
X85725000Y-72390000D03*
G04 #@! TO.P,JP1,3*
G04 #@! TO.N,+3V3*
X88265000Y-72390000D03*
G04 #@! TD*
D12*
G04 #@! TO.N,Net-(D3-Pad2)*
G04 #@! TO.C,R1*
G36*
X107338691Y-82494553D02*
X107359926Y-82497703D01*
X107380750Y-82502919D01*
X107400962Y-82510151D01*
X107420368Y-82519330D01*
X107438781Y-82530366D01*
X107456024Y-82543154D01*
X107471930Y-82557570D01*
X107486346Y-82573476D01*
X107499134Y-82590719D01*
X107510170Y-82609132D01*
X107519349Y-82628538D01*
X107526581Y-82648750D01*
X107531797Y-82669574D01*
X107534947Y-82690809D01*
X107536000Y-82712250D01*
X107536000Y-83149750D01*
X107534947Y-83171191D01*
X107531797Y-83192426D01*
X107526581Y-83213250D01*
X107519349Y-83233462D01*
X107510170Y-83252868D01*
X107499134Y-83271281D01*
X107486346Y-83288524D01*
X107471930Y-83304430D01*
X107456024Y-83318846D01*
X107438781Y-83331634D01*
X107420368Y-83342670D01*
X107400962Y-83351849D01*
X107380750Y-83359081D01*
X107359926Y-83364297D01*
X107338691Y-83367447D01*
X107317250Y-83368500D01*
X106804750Y-83368500D01*
X106783309Y-83367447D01*
X106762074Y-83364297D01*
X106741250Y-83359081D01*
X106721038Y-83351849D01*
X106701632Y-83342670D01*
X106683219Y-83331634D01*
X106665976Y-83318846D01*
X106650070Y-83304430D01*
X106635654Y-83288524D01*
X106622866Y-83271281D01*
X106611830Y-83252868D01*
X106602651Y-83233462D01*
X106595419Y-83213250D01*
X106590203Y-83192426D01*
X106587053Y-83171191D01*
X106586000Y-83149750D01*
X106586000Y-82712250D01*
X106587053Y-82690809D01*
X106590203Y-82669574D01*
X106595419Y-82648750D01*
X106602651Y-82628538D01*
X106611830Y-82609132D01*
X106622866Y-82590719D01*
X106635654Y-82573476D01*
X106650070Y-82557570D01*
X106665976Y-82543154D01*
X106683219Y-82530366D01*
X106701632Y-82519330D01*
X106721038Y-82510151D01*
X106741250Y-82502919D01*
X106762074Y-82497703D01*
X106783309Y-82494553D01*
X106804750Y-82493500D01*
X107317250Y-82493500D01*
X107338691Y-82494553D01*
X107338691Y-82494553D01*
G37*
D13*
G04 #@! TD*
G04 #@! TO.P,R1,1*
G04 #@! TO.N,Net-(D3-Pad2)*
X107061000Y-82931000D03*
D12*
G04 #@! TO.N,PWR*
G04 #@! TO.C,R1*
G36*
X107338691Y-84069553D02*
X107359926Y-84072703D01*
X107380750Y-84077919D01*
X107400962Y-84085151D01*
X107420368Y-84094330D01*
X107438781Y-84105366D01*
X107456024Y-84118154D01*
X107471930Y-84132570D01*
X107486346Y-84148476D01*
X107499134Y-84165719D01*
X107510170Y-84184132D01*
X107519349Y-84203538D01*
X107526581Y-84223750D01*
X107531797Y-84244574D01*
X107534947Y-84265809D01*
X107536000Y-84287250D01*
X107536000Y-84724750D01*
X107534947Y-84746191D01*
X107531797Y-84767426D01*
X107526581Y-84788250D01*
X107519349Y-84808462D01*
X107510170Y-84827868D01*
X107499134Y-84846281D01*
X107486346Y-84863524D01*
X107471930Y-84879430D01*
X107456024Y-84893846D01*
X107438781Y-84906634D01*
X107420368Y-84917670D01*
X107400962Y-84926849D01*
X107380750Y-84934081D01*
X107359926Y-84939297D01*
X107338691Y-84942447D01*
X107317250Y-84943500D01*
X106804750Y-84943500D01*
X106783309Y-84942447D01*
X106762074Y-84939297D01*
X106741250Y-84934081D01*
X106721038Y-84926849D01*
X106701632Y-84917670D01*
X106683219Y-84906634D01*
X106665976Y-84893846D01*
X106650070Y-84879430D01*
X106635654Y-84863524D01*
X106622866Y-84846281D01*
X106611830Y-84827868D01*
X106602651Y-84808462D01*
X106595419Y-84788250D01*
X106590203Y-84767426D01*
X106587053Y-84746191D01*
X106586000Y-84724750D01*
X106586000Y-84287250D01*
X106587053Y-84265809D01*
X106590203Y-84244574D01*
X106595419Y-84223750D01*
X106602651Y-84203538D01*
X106611830Y-84184132D01*
X106622866Y-84165719D01*
X106635654Y-84148476D01*
X106650070Y-84132570D01*
X106665976Y-84118154D01*
X106683219Y-84105366D01*
X106701632Y-84094330D01*
X106721038Y-84085151D01*
X106741250Y-84077919D01*
X106762074Y-84072703D01*
X106783309Y-84069553D01*
X106804750Y-84068500D01*
X107317250Y-84068500D01*
X107338691Y-84069553D01*
X107338691Y-84069553D01*
G37*
D13*
G04 #@! TD*
G04 #@! TO.P,R1,2*
G04 #@! TO.N,PWR*
X107061000Y-84506000D03*
D12*
G04 #@! TO.N,PWR*
G04 #@! TO.C,R2*
G36*
X107338691Y-74595053D02*
X107359926Y-74598203D01*
X107380750Y-74603419D01*
X107400962Y-74610651D01*
X107420368Y-74619830D01*
X107438781Y-74630866D01*
X107456024Y-74643654D01*
X107471930Y-74658070D01*
X107486346Y-74673976D01*
X107499134Y-74691219D01*
X107510170Y-74709632D01*
X107519349Y-74729038D01*
X107526581Y-74749250D01*
X107531797Y-74770074D01*
X107534947Y-74791309D01*
X107536000Y-74812750D01*
X107536000Y-75250250D01*
X107534947Y-75271691D01*
X107531797Y-75292926D01*
X107526581Y-75313750D01*
X107519349Y-75333962D01*
X107510170Y-75353368D01*
X107499134Y-75371781D01*
X107486346Y-75389024D01*
X107471930Y-75404930D01*
X107456024Y-75419346D01*
X107438781Y-75432134D01*
X107420368Y-75443170D01*
X107400962Y-75452349D01*
X107380750Y-75459581D01*
X107359926Y-75464797D01*
X107338691Y-75467947D01*
X107317250Y-75469000D01*
X106804750Y-75469000D01*
X106783309Y-75467947D01*
X106762074Y-75464797D01*
X106741250Y-75459581D01*
X106721038Y-75452349D01*
X106701632Y-75443170D01*
X106683219Y-75432134D01*
X106665976Y-75419346D01*
X106650070Y-75404930D01*
X106635654Y-75389024D01*
X106622866Y-75371781D01*
X106611830Y-75353368D01*
X106602651Y-75333962D01*
X106595419Y-75313750D01*
X106590203Y-75292926D01*
X106587053Y-75271691D01*
X106586000Y-75250250D01*
X106586000Y-74812750D01*
X106587053Y-74791309D01*
X106590203Y-74770074D01*
X106595419Y-74749250D01*
X106602651Y-74729038D01*
X106611830Y-74709632D01*
X106622866Y-74691219D01*
X106635654Y-74673976D01*
X106650070Y-74658070D01*
X106665976Y-74643654D01*
X106683219Y-74630866D01*
X106701632Y-74619830D01*
X106721038Y-74610651D01*
X106741250Y-74603419D01*
X106762074Y-74598203D01*
X106783309Y-74595053D01*
X106804750Y-74594000D01*
X107317250Y-74594000D01*
X107338691Y-74595053D01*
X107338691Y-74595053D01*
G37*
D13*
G04 #@! TD*
G04 #@! TO.P,R2,2*
G04 #@! TO.N,PWR*
X107061000Y-75031500D03*
D12*
G04 #@! TO.N,Net-(D2-Pad2)*
G04 #@! TO.C,R2*
G36*
X107338691Y-76170053D02*
X107359926Y-76173203D01*
X107380750Y-76178419D01*
X107400962Y-76185651D01*
X107420368Y-76194830D01*
X107438781Y-76205866D01*
X107456024Y-76218654D01*
X107471930Y-76233070D01*
X107486346Y-76248976D01*
X107499134Y-76266219D01*
X107510170Y-76284632D01*
X107519349Y-76304038D01*
X107526581Y-76324250D01*
X107531797Y-76345074D01*
X107534947Y-76366309D01*
X107536000Y-76387750D01*
X107536000Y-76825250D01*
X107534947Y-76846691D01*
X107531797Y-76867926D01*
X107526581Y-76888750D01*
X107519349Y-76908962D01*
X107510170Y-76928368D01*
X107499134Y-76946781D01*
X107486346Y-76964024D01*
X107471930Y-76979930D01*
X107456024Y-76994346D01*
X107438781Y-77007134D01*
X107420368Y-77018170D01*
X107400962Y-77027349D01*
X107380750Y-77034581D01*
X107359926Y-77039797D01*
X107338691Y-77042947D01*
X107317250Y-77044000D01*
X106804750Y-77044000D01*
X106783309Y-77042947D01*
X106762074Y-77039797D01*
X106741250Y-77034581D01*
X106721038Y-77027349D01*
X106701632Y-77018170D01*
X106683219Y-77007134D01*
X106665976Y-76994346D01*
X106650070Y-76979930D01*
X106635654Y-76964024D01*
X106622866Y-76946781D01*
X106611830Y-76928368D01*
X106602651Y-76908962D01*
X106595419Y-76888750D01*
X106590203Y-76867926D01*
X106587053Y-76846691D01*
X106586000Y-76825250D01*
X106586000Y-76387750D01*
X106587053Y-76366309D01*
X106590203Y-76345074D01*
X106595419Y-76324250D01*
X106602651Y-76304038D01*
X106611830Y-76284632D01*
X106622866Y-76266219D01*
X106635654Y-76248976D01*
X106650070Y-76233070D01*
X106665976Y-76218654D01*
X106683219Y-76205866D01*
X106701632Y-76194830D01*
X106721038Y-76185651D01*
X106741250Y-76178419D01*
X106762074Y-76173203D01*
X106783309Y-76170053D01*
X106804750Y-76169000D01*
X107317250Y-76169000D01*
X107338691Y-76170053D01*
X107338691Y-76170053D01*
G37*
D13*
G04 #@! TD*
G04 #@! TO.P,R2,1*
G04 #@! TO.N,Net-(D2-Pad2)*
X107061000Y-76606500D03*
D12*
G04 #@! TO.N,+5V*
G04 #@! TO.C,R3*
G36*
X85025191Y-75726053D02*
X85046426Y-75729203D01*
X85067250Y-75734419D01*
X85087462Y-75741651D01*
X85106868Y-75750830D01*
X85125281Y-75761866D01*
X85142524Y-75774654D01*
X85158430Y-75789070D01*
X85172846Y-75804976D01*
X85185634Y-75822219D01*
X85196670Y-75840632D01*
X85205849Y-75860038D01*
X85213081Y-75880250D01*
X85218297Y-75901074D01*
X85221447Y-75922309D01*
X85222500Y-75943750D01*
X85222500Y-76456250D01*
X85221447Y-76477691D01*
X85218297Y-76498926D01*
X85213081Y-76519750D01*
X85205849Y-76539962D01*
X85196670Y-76559368D01*
X85185634Y-76577781D01*
X85172846Y-76595024D01*
X85158430Y-76610930D01*
X85142524Y-76625346D01*
X85125281Y-76638134D01*
X85106868Y-76649170D01*
X85087462Y-76658349D01*
X85067250Y-76665581D01*
X85046426Y-76670797D01*
X85025191Y-76673947D01*
X85003750Y-76675000D01*
X84566250Y-76675000D01*
X84544809Y-76673947D01*
X84523574Y-76670797D01*
X84502750Y-76665581D01*
X84482538Y-76658349D01*
X84463132Y-76649170D01*
X84444719Y-76638134D01*
X84427476Y-76625346D01*
X84411570Y-76610930D01*
X84397154Y-76595024D01*
X84384366Y-76577781D01*
X84373330Y-76559368D01*
X84364151Y-76539962D01*
X84356919Y-76519750D01*
X84351703Y-76498926D01*
X84348553Y-76477691D01*
X84347500Y-76456250D01*
X84347500Y-75943750D01*
X84348553Y-75922309D01*
X84351703Y-75901074D01*
X84356919Y-75880250D01*
X84364151Y-75860038D01*
X84373330Y-75840632D01*
X84384366Y-75822219D01*
X84397154Y-75804976D01*
X84411570Y-75789070D01*
X84427476Y-75774654D01*
X84444719Y-75761866D01*
X84463132Y-75750830D01*
X84482538Y-75741651D01*
X84502750Y-75734419D01*
X84523574Y-75729203D01*
X84544809Y-75726053D01*
X84566250Y-75725000D01*
X85003750Y-75725000D01*
X85025191Y-75726053D01*
X85025191Y-75726053D01*
G37*
D13*
G04 #@! TD*
G04 #@! TO.P,R3,1*
G04 #@! TO.N,+5V*
X84785000Y-76200000D03*
D12*
G04 #@! TO.N,Net-(D1-Pad2)*
G04 #@! TO.C,R3*
G36*
X86600191Y-75726053D02*
X86621426Y-75729203D01*
X86642250Y-75734419D01*
X86662462Y-75741651D01*
X86681868Y-75750830D01*
X86700281Y-75761866D01*
X86717524Y-75774654D01*
X86733430Y-75789070D01*
X86747846Y-75804976D01*
X86760634Y-75822219D01*
X86771670Y-75840632D01*
X86780849Y-75860038D01*
X86788081Y-75880250D01*
X86793297Y-75901074D01*
X86796447Y-75922309D01*
X86797500Y-75943750D01*
X86797500Y-76456250D01*
X86796447Y-76477691D01*
X86793297Y-76498926D01*
X86788081Y-76519750D01*
X86780849Y-76539962D01*
X86771670Y-76559368D01*
X86760634Y-76577781D01*
X86747846Y-76595024D01*
X86733430Y-76610930D01*
X86717524Y-76625346D01*
X86700281Y-76638134D01*
X86681868Y-76649170D01*
X86662462Y-76658349D01*
X86642250Y-76665581D01*
X86621426Y-76670797D01*
X86600191Y-76673947D01*
X86578750Y-76675000D01*
X86141250Y-76675000D01*
X86119809Y-76673947D01*
X86098574Y-76670797D01*
X86077750Y-76665581D01*
X86057538Y-76658349D01*
X86038132Y-76649170D01*
X86019719Y-76638134D01*
X86002476Y-76625346D01*
X85986570Y-76610930D01*
X85972154Y-76595024D01*
X85959366Y-76577781D01*
X85948330Y-76559368D01*
X85939151Y-76539962D01*
X85931919Y-76519750D01*
X85926703Y-76498926D01*
X85923553Y-76477691D01*
X85922500Y-76456250D01*
X85922500Y-75943750D01*
X85923553Y-75922309D01*
X85926703Y-75901074D01*
X85931919Y-75880250D01*
X85939151Y-75860038D01*
X85948330Y-75840632D01*
X85959366Y-75822219D01*
X85972154Y-75804976D01*
X85986570Y-75789070D01*
X86002476Y-75774654D01*
X86019719Y-75761866D01*
X86038132Y-75750830D01*
X86057538Y-75741651D01*
X86077750Y-75734419D01*
X86098574Y-75729203D01*
X86119809Y-75726053D01*
X86141250Y-75725000D01*
X86578750Y-75725000D01*
X86600191Y-75726053D01*
X86600191Y-75726053D01*
G37*
D13*
G04 #@! TD*
G04 #@! TO.P,R3,2*
G04 #@! TO.N,Net-(D1-Pad2)*
X86360000Y-76200000D03*
D18*
G04 #@! TO.P,U1,1*
G04 #@! TO.N,TX0*
X100745000Y-76410000D03*
G04 #@! TO.P,U1,2*
G04 #@! TO.N,DTR*
X100095000Y-76410000D03*
G04 #@! TO.P,U1,3*
G04 #@! TO.N,RTS*
X99445000Y-76410000D03*
G04 #@! TO.P,U1,4*
G04 #@! TO.N,PWR*
X98795000Y-76410000D03*
G04 #@! TO.P,U1,5*
G04 #@! TO.N,RXI*
X98145000Y-76410000D03*
G04 #@! TO.P,U1,6*
G04 #@! TO.N,RI*
X97495000Y-76410000D03*
G04 #@! TO.P,U1,7*
G04 #@! TO.N,GNDREF*
X96845000Y-76410000D03*
G04 #@! TO.P,U1,8*
G04 #@! TO.N,N/C*
X96195000Y-76410000D03*
G04 #@! TO.P,U1,9*
G04 #@! TO.N,DCR*
X95545000Y-76410000D03*
G04 #@! TO.P,U1,10*
G04 #@! TO.N,DCD*
X94895000Y-76410000D03*
G04 #@! TO.P,U1,11*
G04 #@! TO.N,CTS*
X94245000Y-76410000D03*
G04 #@! TO.P,U1,12*
G04 #@! TO.N,Net-(U1-Pad12)*
X93595000Y-76410000D03*
G04 #@! TO.P,U1,13*
G04 #@! TO.N,Net-(U1-Pad13)*
X92945000Y-76410000D03*
G04 #@! TO.P,U1,14*
G04 #@! TO.N,Net-(U1-Pad14)*
X92295000Y-76410000D03*
G04 #@! TO.P,U1,15*
G04 #@! TO.N,Net-(J1-Pad3)*
X92295000Y-83610000D03*
G04 #@! TO.P,U1,16*
G04 #@! TO.N,Net-(J1-Pad2)*
X92945000Y-83610000D03*
G04 #@! TO.P,U1,17*
G04 #@! TO.N,+3V3*
X93595000Y-83610000D03*
G04 #@! TO.P,U1,18*
G04 #@! TO.N,GNDREF*
X94245000Y-83610000D03*
G04 #@! TO.P,U1,19*
G04 #@! TO.N,PWR*
X94895000Y-83610000D03*
G04 #@! TO.P,U1,20*
G04 #@! TO.N,+5V*
X95545000Y-83610000D03*
G04 #@! TO.P,U1,21*
G04 #@! TO.N,GNDREF*
X96195000Y-83610000D03*
G04 #@! TO.P,U1,22*
G04 #@! TO.N,Net-(D3-Pad1)*
X96845000Y-83610000D03*
G04 #@! TO.P,U1,23*
G04 #@! TO.N,Net-(D2-Pad1)*
X97495000Y-83610000D03*
G04 #@! TO.P,U1,24*
G04 #@! TO.N,N/C*
X98145000Y-83610000D03*
G04 #@! TO.P,U1,25*
G04 #@! TO.N,GNDREF*
X98795000Y-83610000D03*
G04 #@! TO.P,U1,26*
X99445000Y-83610000D03*
G04 #@! TO.P,U1,27*
G04 #@! TO.N,Net-(U1-Pad27)*
X100095000Y-83610000D03*
G04 #@! TO.P,U1,28*
G04 #@! TO.N,Net-(U1-Pad28)*
X100745000Y-83610000D03*
G04 #@! TD*
D17*
G04 #@! TO.P,J2,8*
G04 #@! TO.N,RXI*
X110490000Y-87630000D03*
G04 #@! TO.P,J2,7*
G04 #@! TO.N,TX0*
X107950000Y-87630000D03*
G04 #@! TO.P,J2,6*
G04 #@! TO.N,DTR*
X105410000Y-87630000D03*
G04 #@! TO.P,J2,5*
G04 #@! TO.N,RTS*
X102870000Y-87630000D03*
G04 #@! TO.P,J2,4*
G04 #@! TO.N,Net-(J2-Pad4)*
X100330000Y-87630000D03*
G04 #@! TO.P,J2,3*
G04 #@! TO.N,GNDREF*
X97790000Y-87630000D03*
G04 #@! TO.P,J2,2*
G04 #@! TO.N,PWR*
X95250000Y-87630000D03*
D16*
G04 #@! TO.P,J2,1*
G04 #@! TO.N,GNDREF*
X92710000Y-87630000D03*
G04 #@! TD*
G04 #@! TO.P,J3,1*
G04 #@! TO.N,CTS*
X92710000Y-72390000D03*
D17*
G04 #@! TO.P,J3,2*
G04 #@! TO.N,DCD*
X95250000Y-72390000D03*
G04 #@! TO.P,J3,3*
G04 #@! TO.N,DCR*
X97790000Y-72390000D03*
G04 #@! TO.P,J3,4*
G04 #@! TO.N,RI*
X100330000Y-72390000D03*
G04 #@! TO.P,J3,5*
G04 #@! TO.N,RXI*
X102870000Y-72390000D03*
G04 #@! TO.P,J3,6*
G04 #@! TO.N,PWR*
X105410000Y-72390000D03*
G04 #@! TO.P,J3,7*
G04 #@! TO.N,TX0*
X107950000Y-72390000D03*
G04 #@! TO.P,J3,8*
G04 #@! TO.N,GNDREF*
X110490000Y-72390000D03*
G04 #@! TD*
D19*
G04 #@! TO.N,+5V*
X82275000Y-78710000D02*
X82095000Y-78710000D01*
X84785000Y-76200000D02*
X82275000Y-78710000D01*
X83185000Y-74600000D02*
X84785000Y-76200000D01*
X83185000Y-72390000D02*
X83185000Y-74600000D01*
X86740001Y-88805001D02*
X85565000Y-87630000D01*
X85565000Y-87630000D02*
X85265000Y-87630000D01*
X95814001Y-88805001D02*
X86740001Y-88805001D01*
X96614999Y-88004003D02*
X95814001Y-88805001D01*
X96614999Y-87091409D02*
X96614999Y-88004003D01*
X95545000Y-86021410D02*
X96614999Y-87091409D01*
X95545000Y-83610000D02*
X95545000Y-86021410D01*
X85265000Y-84630000D02*
X84455000Y-83820000D01*
X85265000Y-87630000D02*
X85265000Y-84630000D01*
X81145000Y-78710000D02*
X82095000Y-78710000D01*
X81069999Y-78785001D02*
X81145000Y-78710000D01*
X81069999Y-81770001D02*
X81069999Y-78785001D01*
X83119998Y-83820000D02*
X81069999Y-81770001D01*
X84455000Y-83820000D02*
X83119998Y-83820000D01*
G04 #@! TO.N,GNDREF*
X99445000Y-83610000D02*
X98795000Y-83610000D01*
X96195000Y-82485000D02*
X96195000Y-83610000D01*
X96270001Y-82409999D02*
X96195000Y-82485000D01*
X98719999Y-82409999D02*
X96270001Y-82409999D01*
X98795000Y-82485000D02*
X98719999Y-82409999D01*
X98795000Y-83610000D02*
X98795000Y-82485000D01*
X96195000Y-86035000D02*
X97790000Y-87630000D01*
X96195000Y-83610000D02*
X96195000Y-86035000D01*
X92710000Y-87630000D02*
X88265000Y-87630000D01*
X85160999Y-73565001D02*
X84360001Y-72764003D01*
X86289001Y-73565001D02*
X85160999Y-73565001D01*
X86900001Y-72954001D02*
X86289001Y-73565001D01*
X86900001Y-71849999D02*
X86900001Y-72954001D01*
X87535001Y-71214999D02*
X86900001Y-71849999D01*
X88829001Y-71214999D02*
X87535001Y-71214999D01*
X89440001Y-71825999D02*
X88829001Y-71214999D01*
X89440001Y-77680001D02*
X89440001Y-71825999D01*
X94245000Y-82485000D02*
X89440001Y-77680001D01*
X94245000Y-83610000D02*
X94245000Y-82485000D01*
X97453981Y-70314979D02*
X85195021Y-70314979D01*
X98965001Y-71825999D02*
X97453981Y-70314979D01*
X98965001Y-72954001D02*
X98965001Y-71825999D01*
X96845000Y-75074002D02*
X98965001Y-72954001D01*
X96845000Y-76410000D02*
X96845000Y-75074002D01*
X94245000Y-86095000D02*
X92710000Y-87630000D01*
X94245000Y-83610000D02*
X94245000Y-86095000D01*
X88265000Y-83820000D02*
X86030000Y-83820000D01*
X82095000Y-80860000D02*
X82095000Y-81310000D01*
X82180000Y-80775000D02*
X82095000Y-80860000D01*
X85725000Y-80775000D02*
X82180000Y-80775000D01*
X97790000Y-88832081D02*
X97790000Y-87630000D01*
X98662938Y-89705019D02*
X97790000Y-88832081D01*
X86420710Y-81470710D02*
X85725000Y-80775000D01*
X86491612Y-81541612D02*
X86420710Y-81470710D01*
X86491612Y-83358388D02*
X86491612Y-81541612D01*
X86030000Y-83820000D02*
X86491612Y-83358388D01*
X88265000Y-87630000D02*
X88265000Y-83820000D01*
X84360001Y-71149999D02*
X85195021Y-70314979D01*
X84360001Y-72764003D02*
X84360001Y-71149999D01*
X82975019Y-70314979D02*
X85195021Y-70314979D01*
X84855017Y-89705019D02*
X80720010Y-85570012D01*
X98662938Y-89705019D02*
X84855017Y-89705019D01*
X82009999Y-71279999D02*
X82975019Y-70314979D01*
X82009999Y-75497096D02*
X82009999Y-71279999D01*
X80391000Y-77116095D02*
X82009999Y-75497096D01*
X80391000Y-81727412D02*
X80391000Y-77116095D01*
X80720010Y-82056422D02*
X80391000Y-81727412D01*
X80720010Y-85570012D02*
X80720010Y-82056422D01*
X107613981Y-70314979D02*
X97453981Y-70314979D01*
X107613981Y-70314979D02*
X107613981Y-70313019D01*
X108414979Y-70314979D02*
X110490000Y-72390000D01*
X107613981Y-70314979D02*
X108414979Y-70314979D01*
X110790393Y-89705019D02*
X98662938Y-89705019D01*
X112141000Y-88354412D02*
X110790393Y-89705019D01*
X110490000Y-72390000D02*
X111339999Y-73239999D01*
X111339999Y-73239999D02*
X111339999Y-75168999D01*
X112115011Y-75944011D02*
X112115011Y-88239011D01*
X111339999Y-75168999D02*
X112115011Y-75944011D01*
X112115011Y-88239011D02*
X112141000Y-88265000D01*
X112141000Y-88265000D02*
X112141000Y-88354412D01*
G04 #@! TO.N,Net-(D2-Pad2)*
X107211000Y-76756500D02*
X107061000Y-76606500D01*
X107211000Y-78520993D02*
X107211000Y-76756500D01*
G04 #@! TO.N,Net-(D2-Pad1)*
X108514001Y-88805001D02*
X109250008Y-88068994D01*
X102140001Y-88805001D02*
X108514001Y-88805001D01*
X97495000Y-83610000D02*
X97495000Y-84735000D01*
X97495000Y-84735000D02*
X99214999Y-86454999D01*
X99214999Y-86454999D02*
X100894001Y-86454999D01*
X100894001Y-86454999D02*
X101600000Y-87160998D01*
X101600000Y-87160998D02*
X101600000Y-88265000D01*
X101600000Y-88265000D02*
X102140001Y-88805001D01*
X108400010Y-85413010D02*
X108400010Y-79063010D01*
X109250008Y-88068994D02*
X109250008Y-86263008D01*
X109250008Y-86263008D02*
X108400010Y-85413010D01*
X108942027Y-78520993D02*
X110011000Y-78520993D01*
X108400010Y-79063010D02*
X108942027Y-78520993D01*
G04 #@! TO.N,Net-(D3-Pad1)*
X96845000Y-84945998D02*
X99154999Y-87255997D01*
X96845000Y-83610000D02*
X96845000Y-84945998D01*
X99154999Y-87255997D02*
X99154999Y-88359999D01*
X99154999Y-88359999D02*
X100050011Y-89255011D01*
X100050011Y-89255011D02*
X110603992Y-89255010D01*
X110603992Y-89255010D02*
X111665001Y-88194001D01*
X111665001Y-82597487D02*
X110011000Y-80943486D01*
X111665001Y-88194001D02*
X111665001Y-82597487D01*
G04 #@! TO.N,Net-(D3-Pad2)*
X107061000Y-81093486D02*
X107211000Y-80943486D01*
X107061000Y-82931000D02*
X107061000Y-81093486D01*
G04 #@! TO.N,Net-(J1-Pad2)*
X92945000Y-83610000D02*
X92945000Y-82471410D01*
X89833590Y-79360000D02*
X82095000Y-79360000D01*
X92945000Y-82471410D02*
X89833590Y-79360000D01*
G04 #@! TO.N,Net-(J1-Pad3)*
X83045000Y-80010000D02*
X82095000Y-80010000D01*
X84676810Y-80010000D02*
X83045000Y-80010000D01*
X84861820Y-79824990D02*
X84676810Y-80010000D01*
X89634990Y-79824990D02*
X84861820Y-79824990D01*
X92295000Y-82485000D02*
X89634990Y-79824990D01*
X92295000Y-83610000D02*
X92295000Y-82485000D01*
G04 #@! TO.N,Net-(D1-Pad2)*
X85725000Y-76835000D02*
X86360000Y-76200000D01*
X85725000Y-77975000D02*
X85725000Y-76835000D01*
G04 #@! TO.N,CTS*
X94245000Y-73925000D02*
X92710000Y-72390000D01*
X94245000Y-76410000D02*
X94245000Y-73925000D01*
G04 #@! TO.N,PWR*
X94895000Y-84735000D02*
X94895000Y-83610000D01*
X94895000Y-86072919D02*
X94895000Y-84735000D01*
X95250000Y-86427919D02*
X94895000Y-86072919D01*
X95250000Y-87630000D02*
X95250000Y-86427919D01*
X85725000Y-71187919D02*
X85725000Y-72390000D01*
X86147930Y-70764989D02*
X85725000Y-71187919D01*
X89015401Y-70764989D02*
X86147930Y-70764989D01*
X89890010Y-71639598D02*
X89015401Y-70764989D01*
X89890011Y-75690013D02*
X89890010Y-71639598D01*
X91809999Y-77610001D02*
X89890011Y-75690013D01*
X98719999Y-77610001D02*
X91809999Y-77610001D01*
X98795000Y-77535000D02*
X98719999Y-77610001D01*
X98795000Y-76410000D02*
X98795000Y-77535000D01*
X94895000Y-80695002D02*
X91809999Y-77610001D01*
X94895000Y-83610000D02*
X94895000Y-80695002D01*
X104560001Y-73239999D02*
X105410000Y-72390000D01*
X103784989Y-74015011D02*
X104560001Y-73239999D01*
X98795000Y-75285000D02*
X100064989Y-74015011D01*
X98795000Y-76410000D02*
X98795000Y-75285000D01*
X105410000Y-73380500D02*
X105410000Y-72390000D01*
X107061000Y-75031500D02*
X105410000Y-73380500D01*
X107061000Y-84506000D02*
X105726020Y-84506000D01*
X105675020Y-84455000D02*
X105675020Y-80910020D01*
X105726020Y-84506000D02*
X105675020Y-84455000D01*
X103632000Y-78867000D02*
X103632000Y-74015011D01*
X105675020Y-80910020D02*
X103632000Y-78867000D01*
X100064989Y-74015011D02*
X103632000Y-74015011D01*
X103632000Y-74015011D02*
X103784989Y-74015011D01*
G04 #@! TO.N,RXI*
X102020001Y-73239999D02*
X102870000Y-72390000D01*
X101694999Y-73565001D02*
X102020001Y-73239999D01*
X99864999Y-73565001D02*
X101694999Y-73565001D01*
X98145000Y-75285000D02*
X99864999Y-73565001D01*
X98145000Y-76410000D02*
X98145000Y-75285000D01*
X109060990Y-84168990D02*
X110490000Y-85598000D01*
X110490000Y-85598000D02*
X110490000Y-87630000D01*
X109105524Y-79743476D02*
X109060990Y-79788010D01*
X110601707Y-79743476D02*
X109105524Y-79743476D01*
X110961010Y-79384173D02*
X110601707Y-79743476D01*
X109060990Y-79788010D02*
X109060990Y-84168990D01*
X110961010Y-77657813D02*
X110961010Y-79384173D01*
X110236000Y-76932803D02*
X110961010Y-77657813D01*
X104045001Y-71214999D02*
X108514001Y-71214999D01*
X102870000Y-72390000D02*
X104045001Y-71214999D01*
X108514001Y-71214999D02*
X109314999Y-72015997D01*
X109314999Y-72015997D02*
X109314999Y-72992999D01*
X109314999Y-72992999D02*
X110236000Y-73914000D01*
X110236000Y-73914000D02*
X110236000Y-76932803D01*
G04 #@! TO.N,DTR*
X105410000Y-86427919D02*
X104775000Y-85792919D01*
X105410000Y-87630000D02*
X105410000Y-86427919D01*
X104775000Y-85792919D02*
X104775000Y-82551410D01*
X100095000Y-77871410D02*
X104775000Y-82551410D01*
X100095000Y-76410000D02*
X100095000Y-77871410D01*
G04 #@! TO.N,+3V3*
X88265000Y-73592081D02*
X88265000Y-72390000D01*
X88265000Y-77155000D02*
X88265000Y-73592081D01*
X93595000Y-82485000D02*
X88265000Y-77155000D01*
X93595000Y-83610000D02*
X93595000Y-82485000D01*
X90301612Y-84281612D02*
X89840000Y-83820000D01*
X90830001Y-84810001D02*
X90301612Y-84281612D01*
X93519999Y-84810001D02*
X90830001Y-84810001D01*
X93595000Y-84735000D02*
X93519999Y-84810001D01*
X93595000Y-83610000D02*
X93595000Y-84735000D01*
G04 #@! TO.N,TX0*
X100745000Y-77885000D02*
X100745000Y-76410000D01*
X105225010Y-82365010D02*
X100745000Y-77885000D01*
X107950000Y-87630000D02*
X105225010Y-84905010D01*
X105225010Y-84905010D02*
X105225010Y-82365010D01*
X107492504Y-75843990D02*
X106401010Y-75843990D01*
X107950000Y-72390000D02*
X107950000Y-75386494D01*
X107950000Y-75386494D02*
X107492504Y-75843990D01*
X106260990Y-75984010D02*
X106260990Y-83400990D01*
X106401010Y-75843990D02*
X106260990Y-75984010D01*
X107950000Y-86427919D02*
X107950000Y-87630000D01*
X107950000Y-84151006D02*
X107950000Y-86427919D01*
X107492504Y-83693510D02*
X107950000Y-84151006D01*
X106553510Y-83693510D02*
X107492504Y-83693510D01*
X106260990Y-83400990D02*
X106553510Y-83693510D01*
G04 #@! TO.N,RTS*
X99445000Y-77535000D02*
X99445000Y-76410000D01*
X99445000Y-77857820D02*
X99445000Y-77535000D01*
X102870000Y-81282820D02*
X99445000Y-77857820D01*
X102870000Y-87630000D02*
X102870000Y-81282820D01*
G04 #@! TO.N,RI*
X97495000Y-75225000D02*
X100330000Y-72390000D01*
X97495000Y-76410000D02*
X97495000Y-75225000D01*
G04 #@! TO.N,DCR*
X96940001Y-73239999D02*
X97790000Y-72390000D01*
X95545000Y-74635000D02*
X96940001Y-73239999D01*
X95545000Y-76410000D02*
X95545000Y-74635000D01*
G04 #@! TO.N,DCD*
X94895000Y-72745000D02*
X95250000Y-72390000D01*
X94895000Y-76410000D02*
X94895000Y-72745000D01*
G04 #@! TD*
M02*
