M48
;DRILL file {KiCad (5.0.1)-3} date 27/07/2019 12:32:25
;FORMAT={-:-/ absolute / inch / decimal}
FMAT,2
INCH,TZ
T1C0.0177
T2C0.0394
%
G90
G05
M72
T2
X3.65Y-2.85
X3.75Y-2.85
X3.85Y-2.85
X3.95Y-2.85
X4.05Y-2.85
X4.15Y-2.85
X4.25Y-2.85
X4.35Y-2.85
X3.65Y-3.45
X3.75Y-3.45
X3.85Y-3.45
X3.95Y-3.45
X4.05Y-3.45
X4.15Y-3.45
X4.25Y-3.45
X4.35Y-3.45
X3.275Y-2.85
X3.375Y-2.85
X3.475Y-2.85
T1
X3.112Y-3.0093G85X3.1435Y-3.0093
G05
X3.1435Y-3.2907G85X3.112Y-3.2907
G05
T0
M30
