G04 #@! TF.GenerationSoftware,KiCad,Pcbnew,(5.0.1)-3*
G04 #@! TF.CreationDate,2019-07-27T12:32:00+01:00*
G04 #@! TF.ProjectId,UsbToSerial,557362546F53657269616C2E6B696361,rev?*
G04 #@! TF.SameCoordinates,Original*
G04 #@! TF.FileFunction,Legend,Top*
G04 #@! TF.FilePolarity,Positive*
%FSLAX46Y46*%
G04 Gerber Fmt 4.6, Leading zero omitted, Abs format (unit mm)*
G04 Created by KiCad (PCBNEW (5.0.1)-3) date 27/07/2019 12:32:00*
%MOMM*%
%LPD*%
G01*
G04 APERTURE LIST*
%ADD10C,0.150000*%
%ADD11C,0.120000*%
G04 APERTURE END LIST*
D10*
X87844380Y-82628857D02*
X88653904Y-82628857D01*
X88749142Y-82581238D01*
X88796761Y-82533619D01*
X88844380Y-82438380D01*
X88844380Y-82247904D01*
X88796761Y-82152666D01*
X88749142Y-82105047D01*
X88653904Y-82057428D01*
X87844380Y-82057428D01*
X88796761Y-81628857D02*
X88844380Y-81533619D01*
X88844380Y-81343142D01*
X88796761Y-81247904D01*
X88701523Y-81200285D01*
X88653904Y-81200285D01*
X88558666Y-81247904D01*
X88511047Y-81343142D01*
X88511047Y-81486000D01*
X88463428Y-81581238D01*
X88368190Y-81628857D01*
X88320571Y-81628857D01*
X88225333Y-81581238D01*
X88177714Y-81486000D01*
X88177714Y-81343142D01*
X88225333Y-81247904D01*
X88844380Y-80771714D02*
X87844380Y-80771714D01*
X88225333Y-80771714D02*
X88177714Y-80676476D01*
X88177714Y-80486000D01*
X88225333Y-80390761D01*
X88272952Y-80343142D01*
X88368190Y-80295523D01*
X88653904Y-80295523D01*
X88749142Y-80343142D01*
X88796761Y-80390761D01*
X88844380Y-80486000D01*
X88844380Y-80676476D01*
X88796761Y-80771714D01*
X87844380Y-80009809D02*
X87844380Y-79438380D01*
X88844380Y-79724095D02*
X87844380Y-79724095D01*
X88844380Y-78962190D02*
X88796761Y-79057428D01*
X88749142Y-79105047D01*
X88653904Y-79152666D01*
X88368190Y-79152666D01*
X88272952Y-79105047D01*
X88225333Y-79057428D01*
X88177714Y-78962190D01*
X88177714Y-78819333D01*
X88225333Y-78724095D01*
X88272952Y-78676476D01*
X88368190Y-78628857D01*
X88653904Y-78628857D01*
X88749142Y-78676476D01*
X88796761Y-78724095D01*
X88844380Y-78819333D01*
X88844380Y-78962190D01*
X88796761Y-78247904D02*
X88844380Y-78105047D01*
X88844380Y-77866952D01*
X88796761Y-77771714D01*
X88749142Y-77724095D01*
X88653904Y-77676476D01*
X88558666Y-77676476D01*
X88463428Y-77724095D01*
X88415809Y-77771714D01*
X88368190Y-77866952D01*
X88320571Y-78057428D01*
X88272952Y-78152666D01*
X88225333Y-78200285D01*
X88130095Y-78247904D01*
X88034857Y-78247904D01*
X87939619Y-78200285D01*
X87892000Y-78152666D01*
X87844380Y-78057428D01*
X87844380Y-77819333D01*
X87892000Y-77676476D01*
X88796761Y-76866952D02*
X88844380Y-76962190D01*
X88844380Y-77152666D01*
X88796761Y-77247904D01*
X88701523Y-77295523D01*
X88320571Y-77295523D01*
X88225333Y-77247904D01*
X88177714Y-77152666D01*
X88177714Y-76962190D01*
X88225333Y-76866952D01*
X88320571Y-76819333D01*
X88415809Y-76819333D01*
X88511047Y-77295523D01*
X88844380Y-76390761D02*
X88177714Y-76390761D01*
X88368190Y-76390761D02*
X88272952Y-76343142D01*
X88225333Y-76295523D01*
X88177714Y-76200285D01*
X88177714Y-76105047D01*
X88844380Y-75771714D02*
X88177714Y-75771714D01*
X87844380Y-75771714D02*
X87892000Y-75819333D01*
X87939619Y-75771714D01*
X87892000Y-75724095D01*
X87844380Y-75771714D01*
X87939619Y-75771714D01*
X88844380Y-74866952D02*
X88320571Y-74866952D01*
X88225333Y-74914571D01*
X88177714Y-75009809D01*
X88177714Y-75200285D01*
X88225333Y-75295523D01*
X88796761Y-74866952D02*
X88844380Y-74962190D01*
X88844380Y-75200285D01*
X88796761Y-75295523D01*
X88701523Y-75343142D01*
X88606285Y-75343142D01*
X88511047Y-75295523D01*
X88463428Y-75200285D01*
X88463428Y-74962190D01*
X88415809Y-74866952D01*
X88844380Y-74247904D02*
X88796761Y-74343142D01*
X88701523Y-74390761D01*
X87844380Y-74390761D01*
X102108000Y-76581000D02*
G75*
G03X102108000Y-76581000I-254000J0D01*
G01*
X78827380Y-89469261D02*
X79827380Y-89135928D01*
X78827380Y-88802595D01*
X79732142Y-88469261D02*
X79779761Y-88421642D01*
X79827380Y-88469261D01*
X79779761Y-88516880D01*
X79732142Y-88469261D01*
X79827380Y-88469261D01*
X78827380Y-87802595D02*
X78827380Y-87707357D01*
X78875000Y-87612119D01*
X78922619Y-87564500D01*
X79017857Y-87516880D01*
X79208333Y-87469261D01*
X79446428Y-87469261D01*
X79636904Y-87516880D01*
X79732142Y-87564500D01*
X79779761Y-87612119D01*
X79827380Y-87707357D01*
X79827380Y-87802595D01*
X79779761Y-87897833D01*
X79732142Y-87945452D01*
X79636904Y-87993071D01*
X79446428Y-88040690D01*
X79208333Y-88040690D01*
X79017857Y-87993071D01*
X78922619Y-87945452D01*
X78875000Y-87897833D01*
X78827380Y-87802595D01*
X79732142Y-87040690D02*
X79779761Y-86993071D01*
X79827380Y-87040690D01*
X79779761Y-87088309D01*
X79732142Y-87040690D01*
X79827380Y-87040690D01*
X78922619Y-86612119D02*
X78875000Y-86564500D01*
X78827380Y-86469261D01*
X78827380Y-86231166D01*
X78875000Y-86135928D01*
X78922619Y-86088309D01*
X79017857Y-86040690D01*
X79113095Y-86040690D01*
X79255952Y-86088309D01*
X79827380Y-86659738D01*
X79827380Y-86040690D01*
X79827380Y-85612119D02*
X78827380Y-85612119D01*
X79208333Y-85612119D02*
X79160714Y-85516880D01*
X79160714Y-85326404D01*
X79208333Y-85231166D01*
X79255952Y-85183547D01*
X79351190Y-85135928D01*
X79636904Y-85135928D01*
X79732142Y-85183547D01*
X79779761Y-85231166D01*
X79827380Y-85326404D01*
X79827380Y-85516880D01*
X79779761Y-85612119D01*
D11*
G04 #@! TO.C,J1*
X82355000Y-76200000D02*
X82355000Y-76860000D01*
X80625000Y-76200000D02*
X82355000Y-76200000D01*
X78055000Y-83820000D02*
X78265000Y-83820000D01*
X78055000Y-76200000D02*
X78265000Y-76200000D01*
X80625000Y-83820000D02*
X82355000Y-83820000D01*
X82355000Y-83820000D02*
X82355000Y-83170000D01*
X83055000Y-78250000D02*
X83055000Y-78700000D01*
X83055000Y-78250000D02*
X82665000Y-78250000D01*
G04 #@! TO.C,C1*
X89215279Y-83310000D02*
X88889721Y-83310000D01*
X89215279Y-84330000D02*
X88889721Y-84330000D01*
G04 #@! TO.C,C2*
X85079721Y-83310000D02*
X85405279Y-83310000D01*
X85079721Y-84330000D02*
X85405279Y-84330000D01*
G04 #@! TO.C,C3*
X88525000Y-89390000D02*
X88525000Y-88690000D01*
X88525000Y-85870000D02*
X88525000Y-86570000D01*
X85894437Y-85870000D02*
X88525000Y-85870000D01*
X85894437Y-89390000D02*
X88525000Y-89390000D01*
X85194437Y-86570000D02*
X85894437Y-85870000D01*
X85194437Y-88690000D02*
X85894437Y-89390000D01*
X84390000Y-86195000D02*
X84765000Y-86195000D01*
X84577500Y-86007500D02*
X84577500Y-86382500D01*
G04 #@! TO.C,D1*
X84590000Y-77775000D02*
X84590000Y-81660000D01*
X84590000Y-81660000D02*
X86860000Y-81660000D01*
X86860000Y-81660000D02*
X86860000Y-77775000D01*
G04 #@! TO.C,D2*
X110896000Y-77385993D02*
X107011000Y-77385993D01*
X110896000Y-79655993D02*
X110896000Y-77385993D01*
X107011000Y-79655993D02*
X110896000Y-79655993D01*
G04 #@! TO.C,D3*
X107011000Y-82078486D02*
X110896000Y-82078486D01*
X110896000Y-82078486D02*
X110896000Y-79808486D01*
X110896000Y-79808486D02*
X107011000Y-79808486D01*
G04 #@! TO.C,JP1*
X89595000Y-73720000D02*
X89595000Y-71060000D01*
X84455000Y-73720000D02*
X89595000Y-73720000D01*
X84455000Y-71060000D02*
X89595000Y-71060000D01*
X84455000Y-73720000D02*
X84455000Y-71060000D01*
X83185000Y-73720000D02*
X81855000Y-73720000D01*
X81855000Y-73720000D02*
X81855000Y-72390000D01*
G04 #@! TO.C,R1*
X107571000Y-83555721D02*
X107571000Y-83881279D01*
X106551000Y-83555721D02*
X106551000Y-83881279D01*
G04 #@! TO.C,R2*
X107571000Y-75981779D02*
X107571000Y-75656221D01*
X106551000Y-75981779D02*
X106551000Y-75656221D01*
G04 #@! TO.C,R3*
X85409721Y-75690000D02*
X85735279Y-75690000D01*
X85409721Y-76710000D02*
X85735279Y-76710000D01*
D10*
G04 #@! TO.C,U1*
X101845000Y-77135000D02*
X101270000Y-77135000D01*
X101845000Y-82885000D02*
X101195000Y-82885000D01*
X91195000Y-82885000D02*
X91845000Y-82885000D01*
X91195000Y-77135000D02*
X91845000Y-77135000D01*
X101845000Y-77135000D02*
X101845000Y-82885000D01*
X91195000Y-77135000D02*
X91195000Y-82885000D01*
X101270000Y-77135000D02*
X101270000Y-75535000D01*
D11*
G04 #@! TO.C,J2*
X91380000Y-88960000D02*
X91380000Y-87630000D01*
X92710000Y-88960000D02*
X91380000Y-88960000D01*
X93980000Y-88960000D02*
X93980000Y-86300000D01*
X93980000Y-86300000D02*
X111820000Y-86300000D01*
X93980000Y-88960000D02*
X111820000Y-88960000D01*
X111820000Y-88960000D02*
X111820000Y-86300000D01*
G04 #@! TO.C,J3*
X111820000Y-73720000D02*
X111820000Y-71060000D01*
X93980000Y-73720000D02*
X111820000Y-73720000D01*
X93980000Y-71060000D02*
X111820000Y-71060000D01*
X93980000Y-73720000D02*
X93980000Y-71060000D01*
X92710000Y-73720000D02*
X91380000Y-73720000D01*
X91380000Y-73720000D02*
X91380000Y-72390000D01*
G04 #@! TO.C,J1*
D10*
X78446380Y-74755333D02*
X79160666Y-74755333D01*
X79303523Y-74802952D01*
X79398761Y-74898190D01*
X79446380Y-75041047D01*
X79446380Y-75136285D01*
X79446380Y-73755333D02*
X79446380Y-74326761D01*
X79446380Y-74041047D02*
X78446380Y-74041047D01*
X78589238Y-74136285D01*
X78684476Y-74231523D01*
X78732095Y-74326761D01*
G04 #@! TO.C,C1*
X88885833Y-85607142D02*
X88838214Y-85654761D01*
X88695357Y-85702380D01*
X88600119Y-85702380D01*
X88457261Y-85654761D01*
X88362023Y-85559523D01*
X88314404Y-85464285D01*
X88266785Y-85273809D01*
X88266785Y-85130952D01*
X88314404Y-84940476D01*
X88362023Y-84845238D01*
X88457261Y-84750000D01*
X88600119Y-84702380D01*
X88695357Y-84702380D01*
X88838214Y-84750000D01*
X88885833Y-84797619D01*
X89838214Y-85702380D02*
X89266785Y-85702380D01*
X89552500Y-85702380D02*
X89552500Y-84702380D01*
X89457261Y-84845238D01*
X89362023Y-84940476D01*
X89266785Y-84988095D01*
G04 #@! TO.C,C2*
X85075833Y-82747142D02*
X85028214Y-82794761D01*
X84885357Y-82842380D01*
X84790119Y-82842380D01*
X84647261Y-82794761D01*
X84552023Y-82699523D01*
X84504404Y-82604285D01*
X84456785Y-82413809D01*
X84456785Y-82270952D01*
X84504404Y-82080476D01*
X84552023Y-81985238D01*
X84647261Y-81890000D01*
X84790119Y-81842380D01*
X84885357Y-81842380D01*
X85028214Y-81890000D01*
X85075833Y-81937619D01*
X85456785Y-81937619D02*
X85504404Y-81890000D01*
X85599642Y-81842380D01*
X85837738Y-81842380D01*
X85932976Y-81890000D01*
X85980595Y-81937619D01*
X86028214Y-82032857D01*
X86028214Y-82128095D01*
X85980595Y-82270952D01*
X85409166Y-82842380D01*
X86028214Y-82842380D01*
G04 #@! TO.C,C3*
X83018333Y-89257142D02*
X82970714Y-89304761D01*
X82827857Y-89352380D01*
X82732619Y-89352380D01*
X82589761Y-89304761D01*
X82494523Y-89209523D01*
X82446904Y-89114285D01*
X82399285Y-88923809D01*
X82399285Y-88780952D01*
X82446904Y-88590476D01*
X82494523Y-88495238D01*
X82589761Y-88400000D01*
X82732619Y-88352380D01*
X82827857Y-88352380D01*
X82970714Y-88400000D01*
X83018333Y-88447619D01*
X83351666Y-88352380D02*
X83970714Y-88352380D01*
X83637380Y-88733333D01*
X83780238Y-88733333D01*
X83875476Y-88780952D01*
X83923095Y-88828571D01*
X83970714Y-88923809D01*
X83970714Y-89161904D01*
X83923095Y-89257142D01*
X83875476Y-89304761D01*
X83780238Y-89352380D01*
X83494523Y-89352380D01*
X83399285Y-89304761D01*
X83351666Y-89257142D01*
G04 #@! TO.C,D1*
X84357380Y-80113095D02*
X83357380Y-80113095D01*
X83357380Y-79875000D01*
X83405000Y-79732142D01*
X83500238Y-79636904D01*
X83595476Y-79589285D01*
X83785952Y-79541666D01*
X83928809Y-79541666D01*
X84119285Y-79589285D01*
X84214523Y-79636904D01*
X84309761Y-79732142D01*
X84357380Y-79875000D01*
X84357380Y-80113095D01*
X84357380Y-78589285D02*
X84357380Y-79160714D01*
X84357380Y-78875000D02*
X83357380Y-78875000D01*
X83500238Y-78970238D01*
X83595476Y-79065476D01*
X83643095Y-79160714D01*
G04 #@! TO.C,D2*
X105758380Y-79259088D02*
X104758380Y-79259088D01*
X104758380Y-79020993D01*
X104806000Y-78878135D01*
X104901238Y-78782897D01*
X104996476Y-78735278D01*
X105186952Y-78687659D01*
X105329809Y-78687659D01*
X105520285Y-78735278D01*
X105615523Y-78782897D01*
X105710761Y-78878135D01*
X105758380Y-79020993D01*
X105758380Y-79259088D01*
X104853619Y-78306707D02*
X104806000Y-78259088D01*
X104758380Y-78163850D01*
X104758380Y-77925754D01*
X104806000Y-77830516D01*
X104853619Y-77782897D01*
X104948857Y-77735278D01*
X105044095Y-77735278D01*
X105186952Y-77782897D01*
X105758380Y-78354326D01*
X105758380Y-77735278D01*
G04 #@! TO.C,D3*
X105758380Y-81681581D02*
X104758380Y-81681581D01*
X104758380Y-81443486D01*
X104806000Y-81300628D01*
X104901238Y-81205390D01*
X104996476Y-81157771D01*
X105186952Y-81110152D01*
X105329809Y-81110152D01*
X105520285Y-81157771D01*
X105615523Y-81205390D01*
X105710761Y-81300628D01*
X105758380Y-81443486D01*
X105758380Y-81681581D01*
X104758380Y-80776819D02*
X104758380Y-80157771D01*
X105139333Y-80491105D01*
X105139333Y-80348247D01*
X105186952Y-80253009D01*
X105234571Y-80205390D01*
X105329809Y-80157771D01*
X105567904Y-80157771D01*
X105663142Y-80205390D01*
X105710761Y-80253009D01*
X105758380Y-80348247D01*
X105758380Y-80633962D01*
X105710761Y-80729200D01*
X105663142Y-80776819D01*
G04 #@! TO.C,JP1*
X80307380Y-73223333D02*
X81021666Y-73223333D01*
X81164523Y-73270952D01*
X81259761Y-73366190D01*
X81307380Y-73509047D01*
X81307380Y-73604285D01*
X81307380Y-72747142D02*
X80307380Y-72747142D01*
X80307380Y-72366190D01*
X80355000Y-72270952D01*
X80402619Y-72223333D01*
X80497857Y-72175714D01*
X80640714Y-72175714D01*
X80735952Y-72223333D01*
X80783571Y-72270952D01*
X80831190Y-72366190D01*
X80831190Y-72747142D01*
X81307380Y-71223333D02*
X81307380Y-71794761D01*
X81307380Y-71509047D02*
X80307380Y-71509047D01*
X80450238Y-71604285D01*
X80545476Y-71699523D01*
X80593095Y-71794761D01*
G04 #@! TO.C,R1*
X109164380Y-83859666D02*
X108688190Y-84193000D01*
X109164380Y-84431095D02*
X108164380Y-84431095D01*
X108164380Y-84050142D01*
X108212000Y-83954904D01*
X108259619Y-83907285D01*
X108354857Y-83859666D01*
X108497714Y-83859666D01*
X108592952Y-83907285D01*
X108640571Y-83954904D01*
X108688190Y-84050142D01*
X108688190Y-84431095D01*
X109164380Y-82907285D02*
X109164380Y-83478714D01*
X109164380Y-83193000D02*
X108164380Y-83193000D01*
X108307238Y-83288238D01*
X108402476Y-83383476D01*
X108450095Y-83478714D01*
G04 #@! TO.C,R2*
X109037380Y-75985666D02*
X108561190Y-76319000D01*
X109037380Y-76557095D02*
X108037380Y-76557095D01*
X108037380Y-76176142D01*
X108085000Y-76080904D01*
X108132619Y-76033285D01*
X108227857Y-75985666D01*
X108370714Y-75985666D01*
X108465952Y-76033285D01*
X108513571Y-76080904D01*
X108561190Y-76176142D01*
X108561190Y-76557095D01*
X108132619Y-75604714D02*
X108085000Y-75557095D01*
X108037380Y-75461857D01*
X108037380Y-75223761D01*
X108085000Y-75128523D01*
X108132619Y-75080904D01*
X108227857Y-75033285D01*
X108323095Y-75033285D01*
X108465952Y-75080904D01*
X109037380Y-75652333D01*
X109037380Y-75033285D01*
G04 #@! TO.C,R3*
X85405833Y-75222380D02*
X85072500Y-74746190D01*
X84834404Y-75222380D02*
X84834404Y-74222380D01*
X85215357Y-74222380D01*
X85310595Y-74270000D01*
X85358214Y-74317619D01*
X85405833Y-74412857D01*
X85405833Y-74555714D01*
X85358214Y-74650952D01*
X85310595Y-74698571D01*
X85215357Y-74746190D01*
X84834404Y-74746190D01*
X85739166Y-74222380D02*
X86358214Y-74222380D01*
X86024880Y-74603333D01*
X86167738Y-74603333D01*
X86262976Y-74650952D01*
X86310595Y-74698571D01*
X86358214Y-74793809D01*
X86358214Y-75031904D01*
X86310595Y-75127142D01*
X86262976Y-75174761D01*
X86167738Y-75222380D01*
X85882023Y-75222380D01*
X85786785Y-75174761D01*
X85739166Y-75127142D01*
G04 #@! TO.C,U1*
X102222380Y-80771904D02*
X103031904Y-80771904D01*
X103127142Y-80724285D01*
X103174761Y-80676666D01*
X103222380Y-80581428D01*
X103222380Y-80390952D01*
X103174761Y-80295714D01*
X103127142Y-80248095D01*
X103031904Y-80200476D01*
X102222380Y-80200476D01*
X103222380Y-79200476D02*
X103222380Y-79771904D01*
X103222380Y-79486190D02*
X102222380Y-79486190D01*
X102365238Y-79581428D01*
X102460476Y-79676666D01*
X102508095Y-79771904D01*
G04 #@! TO.C,J2*
X89832380Y-87963333D02*
X90546666Y-87963333D01*
X90689523Y-88010952D01*
X90784761Y-88106190D01*
X90832380Y-88249047D01*
X90832380Y-88344285D01*
X89927619Y-87534761D02*
X89880000Y-87487142D01*
X89832380Y-87391904D01*
X89832380Y-87153809D01*
X89880000Y-87058571D01*
X89927619Y-87010952D01*
X90022857Y-86963333D01*
X90118095Y-86963333D01*
X90260952Y-87010952D01*
X90832380Y-87582380D01*
X90832380Y-86963333D01*
G04 #@! TO.C,J3*
X89832380Y-72723333D02*
X90546666Y-72723333D01*
X90689523Y-72770952D01*
X90784761Y-72866190D01*
X90832380Y-73009047D01*
X90832380Y-73104285D01*
X89832380Y-72342380D02*
X89832380Y-71723333D01*
X90213333Y-72056666D01*
X90213333Y-71913809D01*
X90260952Y-71818571D01*
X90308571Y-71770952D01*
X90403809Y-71723333D01*
X90641904Y-71723333D01*
X90737142Y-71770952D01*
X90784761Y-71818571D01*
X90832380Y-71913809D01*
X90832380Y-72199523D01*
X90784761Y-72294761D01*
X90737142Y-72342380D01*
G04 #@! TD*
M02*
